<?xml version="1.0" encoding="UTF-8" standalone="no"?>
<!DOCTYPE svg PUBLIC "-//W3C//DTD SVG 1.1//EN"
 "http://www.w3.org/Graphics/SVG/1.1/DTD/svg11.dtd">
<!-- Generated by graphviz version 2.39.20160302.1709 (20160302.1709)
 -->
<!-- Title: %3 Pages: 1 -->
<svg width="4320pt" height="2449pt"
 viewBox="0.00 0.00 4320.00 2448.65" xmlns="http://www.w3.org/2000/svg" xmlns:xlink="http://www.w3.org/1999/xlink">

 <MetaInfo xmlns="http://www.prognoz.ru"><Geo>
   <GeoItem X="-595.30" Y="-142.88" Latitude="37.375593" Longitude="-121.977795"/>
   <GeoItem X="1388.66" Y=" 622.34" Latitude="37.369930" Longitude="-121.959404"/>
 </Geo></MetaInfo>

<g id="graph0" class="graph" transform="scale(8.37457 8.37457) rotate(0) translate(83.7572 227.098)">
<title>%3</title>
<polygon fill="#dae2ff" stroke="transparent" points="-83.7572,65.2932 -83.7572,-227.098 432.09,-227.098 432.09,65.2932 -83.7572,65.2932"/>
<polygon fill="#fed9a6" stroke="#fed9a6" points="-61.4199,-54.1437 -50.5986,-39.9574 -24.9594,-4.30438 12.3168,12.1514 25.012,18.5704 23.9918,-45.9912 20.6959,-58.8832 21.1992,-59.566 20.8713,-61.8746 21.3055,-64.8943 21.72,-65.1986 25.1174,-66.4812 25.1174,-66.4812 21.72,-65.1986 21.3055,-64.8943 20.8713,-61.8746 21.1992,-59.566 20.6959,-58.8832 23.9918,-45.9912 25.012,18.5704 25.4571,18.8229 29.6563,12.6678 37.0682,2.93518 41.1986,-2.88144 38.2371,-43.3037 39.4155,-55.0546 72.7616,-52.7663 58.9103,-26.018 93.1219,-25.1562 96.0003,-22.353 96.0992,-22.3135 100.499,-18.2908 100.593,-18.1621 104.163,-18.1621 104.367,-18.1231 105.6,-18.1231 105.85,-18.1712 109.292,-52.4628 110.432,-18.2058 111.578,-18.2058 113.607,-20.128 116.221,-21.6095 121.202,-22.6034 123.089,-22.2548 125.999,-42.9322 126.618,-60.918 129.912,-61.0527 129.825,-74.0725 131.8,-99.0109 135.044,-96.5891 146.581,-99.2109 171.779,-100.467 157.246,-67.7616 162.714,-67.4104 162.714,-67.4104 157.246,-67.7616 171.779,-100.467 146.581,-99.2109 135.044,-96.5891 131.8,-99.0109 129.825,-74.0725 129.912,-61.0527 126.618,-60.918 125.999,-42.9322 123.089,-22.2548 127.679,-19.5713 129.132,-18.1936 129.939,-18.1936 131.911,-45.7816 134.945,-17.852 135.084,-17.826 136.088,-18.0194 138.888,-37.4165 141.921,-20.4497 144.068,-22.248 144.068,-22.248 141.921,-20.4497 138.888,-37.4165 136.088,-18.0194 135.084,-17.826 134.945,-17.852 131.911,-45.7816 129.939,-18.1936 129.132,-18.1936 127.679,-19.5713 123.089,-22.2548 121.202,-22.6034 116.221,-21.6095 113.607,-20.128 111.578,-18.2058 110.432,-18.2058 109.292,-52.4628 105.85,-18.1712 105.6,-18.1231 104.367,-18.1231 104.163,-18.1621 100.593,-18.1621 100.499,-18.2908 96.0992,-22.3135 96.0003,-22.353 93.1219,-25.1562 58.9103,-26.018 72.7616,-52.7663 39.4155,-55.0546 38.2371,-43.3037 41.1986,-2.88144 37.0682,2.93518 29.6563,12.6678 25.4571,18.8229 31.5609,30.4949 61.8028,51.7804 83.9424,57.6529 96.373,61.2932 103.366,59.5166 109.707,58.4008 124.754,57.2957 127.472,57.1663 139.36,57.8258 142.812,58.1952 146.325,57.2993 153.407,55.6867 180.85,50.1946 194.163,42.2019 212.974,24.8998 215.942,20.1901 216.426,19.9665 226.24,15.7133 233.505,13.2001 276.217,-0.335378 285.683,-8.87573 304.546,-42.0508 310.048,-51.1847 303.972,-57.7623 296.738,-66.4427 285.013,-81.3565 284.925,-81.4765 259.78,-93.1098 252.56,-96.0268 245.198,-98.1124 239.389,-99.0533 231.231,-99.3881 229.903,-99.5241 226.95,-99.4679 226.376,-99.4919 223.829,-99.7544 218.68,-99.3481 215.669,-99.48 214.834,-99.4658 210.857,-99.6424 206.038,-99.5636 203.443,-99.8356 203.097,-99.8928 194.177,-101.921 176.517,-108.078 176.419,-108.408 172.883,-126.027 168.188,-141.565 164.082,-151.881 148.721,-186.52 135.474,-186.069 133.855,-131.891 133.855,-131.891 135.474,-186.069 121.69,-186.282 121.484,-186.305 112.601,-105.791 112.767,-105.552 116.33,-107.682 120.661,-108.595 120.661,-108.595 116.33,-107.682 112.767,-105.552 112.601,-105.791 121.484,-186.305 103.205,-188.859 71.8461,-194.779 68.1529,-194.551 32.4931,-179.616 25.696,-166.274 22.4246,-164.114 5.05244,-153.095 -79.7572,-101.752 -76.2404,-93.3057 -63.6617,-61.2934 -61.4199,-54.1437 -61.4199,-54.1437"/>
<polygon fill="#fbb4ae" stroke="#fbb4ae" points="168.188,-141.565 172.883,-126.027 176.419,-108.408 176.517,-108.078 194.177,-101.921 203.097,-99.8928 203.443,-99.8356 206.038,-99.5636 210.857,-99.6424 214.834,-99.4658 215.669,-99.48 218.68,-99.3481 223.829,-99.7544 226.376,-99.4919 226.95,-99.4679 229.903,-99.5241 231.231,-99.3881 239.389,-99.0533 245.198,-98.1124 252.56,-96.0268 259.78,-93.1098 284.925,-81.4765 285.013,-81.3565 296.738,-66.4427 303.972,-57.7623 310.048,-51.1847 314.811,-52.5248 314.436,-102.751 312.366,-129.541 312.366,-129.541 314.436,-102.751 314.811,-52.5248 317.767,-53.2086 330.125,-55.4561 333.554,-55.9076 335.3,-56.1917 335.997,-56.2699 349.932,-57.4856 369.342,-58.1973 410.021,-80.7437 420.245,-113.188 426.809,-132.294 428.09,-135.756 426.811,-140.405 424.26,-151.741 420.496,-158.941 405.84,-188.821 403.849,-190.293 361.851,-209.233 346.049,-208.59 332.548,-209.189 330.167,-209.362 327.452,-209.712 317.413,-211.578 311.332,-213.052 284.925,-220.199 280.676,-223.098 264.634,-217.364 252.201,-213.256 248.958,-212.276 242.527,-210.691 238.871,-209.894 234.967,-209.151 224.529,-207.75 222.62,-207.547 220.96,-207.51 212.688,-207.555 180.293,-208.634 148.721,-186.52 164.082,-151.881 168.188,-141.565 168.188,-141.565"/>
<polyline fill="none" stroke="#000000" points="203.097,-99.8928 194.177,-101.921 176.517,-108.078 176.419,-108.408 172.883,-126.027 168.188,-141.565 164.082,-151.881 148.721,-186.52 135.474,-186.069 121.69,-186.282 121.484,-186.305 103.205,-188.859 71.8461,-194.779 68.1529,-194.551 32.4931,-179.616 25.696,-166.274 22.4246,-164.114 5.05244,-153.095 -79.7572,-101.752 -76.2404,-93.3057 -63.6617,-61.2934 -61.4199,-54.1437 -50.5986,-39.9574 -24.9594,-4.30438 12.3168,12.1514 25.012,18.5704 25.4571,18.8229 31.5609,30.4949 61.8028,51.7804 83.9424,57.6529 96.373,61.2932 103.366,59.5166 109.707,58.4008 124.754,57.2957 127.472,57.1663 139.36,57.8258 142.812,58.1952 146.325,57.2993 153.407,55.6867 180.85,50.1946 194.163,42.2019 212.974,24.8998 215.942,20.1901 216.426,19.9665 226.24,15.7133 233.505,13.2001 276.217,-0.335378 285.683,-8.87573 304.546,-42.0508 310.048,-51.1847 303.972,-57.7623 296.738,-66.4427 285.013,-81.3565 284.925,-81.4765 259.78,-93.1098 252.56,-96.0268 245.198,-98.1124 239.389,-99.0533 231.231,-99.3881 229.903,-99.5241 226.95,-99.4679 226.376,-99.4919 223.829,-99.7544 218.68,-99.3481 215.669,-99.48 214.834,-99.4658 210.857,-99.6424 206.038,-99.5636 203.443,-99.8356 203.097,-99.8928 "/>
<polyline fill="none" stroke="#000000" points="317.413,-211.578 311.332,-213.052 284.925,-220.199 280.676,-223.098 264.634,-217.364 252.201,-213.256 248.958,-212.276 242.527,-210.691 238.871,-209.894 234.967,-209.151 224.529,-207.75 222.62,-207.547 220.96,-207.51 212.688,-207.555 180.293,-208.634 148.721,-186.52 164.082,-151.881 168.188,-141.565 172.883,-126.027 176.419,-108.408 176.517,-108.078 194.177,-101.921 203.097,-99.8928 203.443,-99.8356 206.038,-99.5636 210.857,-99.6424 214.834,-99.4658 215.669,-99.48 218.68,-99.3481 223.829,-99.7544 226.376,-99.4919 226.95,-99.4679 229.903,-99.5241 231.231,-99.3881 239.389,-99.0533 245.198,-98.1124 252.56,-96.0268 259.78,-93.1098 284.925,-81.4765 285.013,-81.3565 296.738,-66.4427 303.972,-57.7623 310.048,-51.1847 314.811,-52.5248 317.767,-53.2086 330.125,-55.4561 333.554,-55.9076 335.3,-56.1917 335.997,-56.2699 349.932,-57.4856 369.342,-58.1973 410.021,-80.7437 420.245,-113.188 426.809,-132.294 428.09,-135.756 426.811,-140.405 424.26,-151.741 420.496,-158.941 405.84,-188.821 403.849,-190.293 361.851,-209.233 346.049,-208.59 332.548,-209.189 330.167,-209.362 327.452,-209.712 317.413,-211.578 "/>
<!-- 0&#45;&#45;1 -->
<g id="edge1" class="edge">
<title>0&#45;&#45;1</title>
<path fill="none" stroke="grey" d="M183.99,-48.563C173.88,-43.71 162.41,-38.199 152.01,-33.205"/>
</g>
<!-- 0&#45;&#45;2 -->
<g id="edge2" class="edge">
<title>0&#45;&#45;2</title>
<path fill="none" stroke="grey" d="M183.09,-75.328C171.07,-80.871 157.25,-87.242 145.67,-92.58"/>
</g>
<!-- 1&#45;&#45;2 -->
<g id="edge3" class="edge">
<title>1&#45;&#45;2</title>
<path fill="none" stroke="grey" d="M120.41,-36.263C120.47,-50.877 120.54,-71.271 120.59,-85.879"/>
</g>
<!-- 3&#45;&#45;4 -->
<g id="edge4" class="edge">
<title>3&#45;&#45;4</title>
<path fill="none" stroke="grey" d="M290.97,-137C288.41,-137 285.82,-137 283.22,-137"/>
</g>
<!-- 5&#45;&#45;1 -->
<g id="edge5" class="edge">
<title>5&#45;&#45;1</title>
<path fill="none" stroke="grey" d="M49.822,-51.455C61.44,-45.944 75.806,-39.129 88.535,-33.09"/>
</g>
<!-- 5&#45;&#45;2 -->
<g id="edge6" class="edge">
<title>5&#45;&#45;2</title>
<path fill="none" stroke="grey" d="M49.898,-72.301C63.605,-78.464 81.127,-86.342 95.305,-92.716"/>
</g>
<!-- 0 -->
<g id="node1" class="node">
<title>0</title>
<text text-anchor="middle" x="211.98" y="-58.304" font-family="Helvetica,sans-Serif" font-weight="bold" font-size="14.00">Drawing</text>
</g>
<!-- 1 -->
<g id="node2" class="node">
<title>1</title>
<text text-anchor="middle" x="120.35" y="-14.3" font-family="Helvetica,sans-Serif" font-weight="bold" font-size="14.00">Visualization</text>
</g>
<!-- 2 -->
<g id="node3" class="node">
<title>2</title>
<text text-anchor="middle" x="120.66" y="-100.42" font-family="Helvetica,sans-Serif" font-weight="bold" font-size="14.00">Graph</text>
</g>
<!-- 3 -->
<g id="node4" class="node">
<title>3</title>
<text text-anchor="middle" x="330.2" y="-133.3" font-family="Helvetica,sans-Serif" font-weight="bold" font-size="14.00">Arizona</text>
</g>
<!-- 4 -->
<g id="node5" class="node">
<title>4</title>
<text text-anchor="middle" x="235.1" y="-133.3" font-family="Helvetica,sans-Serif" font-weight="bold" font-size="14.00">University</text>
</g>
<!-- 5 -->
<g id="node6" class="node">
<title>5</title>
<text text-anchor="middle" x="27.298" y="-58.441" font-family="Helvetica,sans-Serif" font-weight="bold" font-size="14.00">Map</text>
</g>
</g>
</svg>
