<?xml version="1.0" encoding="UTF-8" standalone="no"?><!DOCTYPE svg PUBLIC "-//W3C//DTD SVG 1.1//EN" "http://www.w3.org/Graphics/SVG/1.1/DTD/svg11.dtd"><svg  width="13331.51" height="16694.809999999998"    viewBox="-5814.89 -9236.445 13331.51 16694.809999999998"  xmlns="http://www.w3.org/2000/svg" xmlns:xlink= "http://www.w3.org/1999/xlink"  ><rect   x="-5764.89" y="-9186.445" width="100%" height="100%" fill="white"/><circle cx="-4650.12"  cy="550.945" r="5" stroke="#000000"  stroke-width="1" fill="#000000"/>
<circle cx="-762.215"  cy="-45.045" r="5" stroke="#000000"  stroke-width="1" fill="#000000"/>
<circle cx="-5741.96"  cy="151.675" r="5" stroke="#000000"  stroke-width="1" fill="#000000"/>
<circle cx="1743.66"  cy="1568.575" r="5" stroke="#000000"  stroke-width="1" fill="#000000"/>
<circle cx="2039.59"  cy="-366.255" r="5" stroke="#000000"  stroke-width="1" fill="#000000"/>
<circle cx="4686.145"  cy="7458.365" r="5" stroke="#000000"  stroke-width="1" fill="#000000"/>
<circle cx="5283.96"  cy="6255.02" r="5" stroke="#000000"  stroke-width="1" fill="#000000"/>
<circle cx="3915.01"  cy="-2522.09" r="5" stroke="#000000"  stroke-width="1" fill="#000000"/>
<circle cx="3921.985"  cy="-3361.98" r="5" stroke="#000000"  stroke-width="1" fill="#000000"/>
<circle cx="-2263.44"  cy="-1859.285" r="5" stroke="#000000"  stroke-width="1" fill="#000000"/>
<circle cx="-913.255"  cy="-2519.755" r="5" stroke="#000000"  stroke-width="1" fill="#000000"/>
<circle cx="1266.125"  cy="-768.825" r="5" stroke="#000000"  stroke-width="1" fill="#000000"/>
<circle cx="-3123.44"  cy="-836.605" r="5" stroke="#000000"  stroke-width="1" fill="#000000"/>
<circle cx="377.905"  cy="1298.635" r="5" stroke="#000000"  stroke-width="1" fill="#000000"/>
<circle cx="-793.92"  cy="2250.54" r="5" stroke="#000000"  stroke-width="1" fill="#000000"/>
<circle cx="-1226.96"  cy="-60.33" r="5" stroke="#000000"  stroke-width="1" fill="#000000"/>
<circle cx="809.375"  cy="1774.735" r="5" stroke="#000000"  stroke-width="1" fill="#000000"/>
<circle cx="-2156.0"  cy="-1054.255" r="5" stroke="#000000"  stroke-width="1" fill="#000000"/>
<circle cx="-2831.42"  cy="1500.895" r="5" stroke="#000000"  stroke-width="1" fill="#000000"/>
<circle cx="-635.875"  cy="-733.325" r="5" stroke="#000000"  stroke-width="1" fill="#000000"/>
<circle cx="-91.83"  cy="-95.525" r="5" stroke="#000000"  stroke-width="1" fill="#000000"/>
<circle cx="1239.3"  cy="1257.645" r="5" stroke="#000000"  stroke-width="1" fill="#000000"/>
<circle cx="-2305.985"  cy="483.27" r="5" stroke="#000000"  stroke-width="1" fill="#000000"/>
<circle cx="-2145.265"  cy="1411.92" r="5" stroke="#000000"  stroke-width="1" fill="#000000"/>
<circle cx="-3328.025"  cy="1775.88" r="5" stroke="#000000"  stroke-width="1" fill="#000000"/>
<circle cx="-1008.5"  cy="868.91" r="5" stroke="#000000"  stroke-width="1" fill="#000000"/>
<circle cx="-1501.47"  cy="1541.735" r="5" stroke="#000000"  stroke-width="1" fill="#000000"/>
<circle cx="-1037.075"  cy="408.06" r="5" stroke="#000000"  stroke-width="1" fill="#000000"/>
<circle cx="-5688.82"  cy="-4189.185" r="5" stroke="#000000"  stroke-width="1" fill="#000000"/>
<circle cx="-4439.86"  cy="-4975.25" r="5" stroke="#000000"  stroke-width="1" fill="#000000"/>
<circle cx="-4071.055"  cy="-1408.18" r="5" stroke="#000000"  stroke-width="1" fill="#000000"/>
<circle cx="2703.71"  cy="208.58" r="5" stroke="#000000"  stroke-width="1" fill="#000000"/>
<circle cx="-1119.91"  cy="4353.31" r="5" stroke="#000000"  stroke-width="1" fill="#000000"/>
<circle cx="5559.045"  cy="1265.585" r="5" stroke="#000000"  stroke-width="1" fill="#000000"/>
<circle cx="4044.475"  cy="130.18" r="5" stroke="#000000"  stroke-width="1" fill="#000000"/>
<circle cx="2067.035"  cy="-1493.16" r="5" stroke="#000000"  stroke-width="1" fill="#000000"/>
<circle cx="2899.88"  cy="-1575.5" r="5" stroke="#000000"  stroke-width="1" fill="#000000"/>
<circle cx="2535.53"  cy="5610.28" r="5" stroke="#000000"  stroke-width="1" fill="#000000"/>
<circle cx="1755.31"  cy="4326.465" r="5" stroke="#000000"  stroke-width="1" fill="#000000"/>
<circle cx="2835.61"  cy="593.24" r="5" stroke="#000000"  stroke-width="1" fill="#000000"/>
<circle cx="4162.985"  cy="1290.115" r="5" stroke="#000000"  stroke-width="1" fill="#000000"/>
<circle cx="2322.005"  cy="-2179.31" r="5" stroke="#000000"  stroke-width="1" fill="#000000"/>
<circle cx="269.4"  cy="-850.71" r="5" stroke="#000000"  stroke-width="1" fill="#000000"/>
<circle cx="1127.585"  cy="-2431.79" r="5" stroke="#000000"  stroke-width="1" fill="#000000"/>
<circle cx="2781.14"  cy="4303.585" r="5" stroke="#000000"  stroke-width="1" fill="#000000"/>
<circle cx="2347.75"  cy="3140.125" r="5" stroke="#000000"  stroke-width="1" fill="#000000"/>
<circle cx="1096.45"  cy="5007.945" r="5" stroke="#000000"  stroke-width="1" fill="#000000"/>
<circle cx="1603.49"  cy="2171.845" r="5" stroke="#000000"  stroke-width="1" fill="#000000"/>
<circle cx="2247.18"  cy="1101.27" r="5" stroke="#000000"  stroke-width="1" fill="#000000"/>
<circle cx="-3013.715"  cy="-3505.895" r="5" stroke="#000000"  stroke-width="1" fill="#000000"/>
<circle cx="-2427.225"  cy="-4627.99" r="5" stroke="#000000"  stroke-width="1" fill="#000000"/>
<circle cx="-5035.21"  cy="-5841.175" r="5" stroke="#000000"  stroke-width="1" fill="#000000"/>
<circle cx="5851.485"  cy="3316.99" r="5" stroke="#000000"  stroke-width="1" fill="#000000"/>
<circle cx="5957.375"  cy="2461.025" r="5" stroke="#000000"  stroke-width="1" fill="#000000"/>
<circle cx="2423.95"  cy="-6989.83" r="5" stroke="#000000"  stroke-width="1" fill="#000000"/>
<circle cx="2288.17"  cy="-4840.59" r="5" stroke="#000000"  stroke-width="1" fill="#000000"/>
<circle cx="1620.295"  cy="-8195.79" r="5" stroke="#000000"  stroke-width="1" fill="#000000"/>
<circle cx="1946.7"  cy="-5472.71" r="5" stroke="#000000"  stroke-width="1" fill="#000000"/>
<circle cx="1724.345"  cy="-7507.25" r="5" stroke="#000000"  stroke-width="1" fill="#000000"/>
<circle cx="1134.435"  cy="5848.515" r="5" stroke="#000000"  stroke-width="1" fill="#000000"/>
<circle cx="4849.875"  cy="-2337.29" r="5" stroke="#000000"  stroke-width="1" fill="#000000"/>
<circle cx="6697.02"  cy="-3870.865" r="5" stroke="#000000"  stroke-width="1" fill="#000000"/>
<circle cx="4719.045"  cy="1649.595" r="5" stroke="#000000"  stroke-width="1" fill="#000000"/>
<circle cx="4459.725"  cy="-667.515" r="5" stroke="#000000"  stroke-width="1" fill="#000000"/>
<circle cx="3759.305"  cy="2146.655" r="5" stroke="#000000"  stroke-width="1" fill="#000000"/>
<circle cx="5291.13"  cy="271.3" r="5" stroke="#000000"  stroke-width="1" fill="#000000"/>
<circle cx="3374.4"  cy="1763.205" r="5" stroke="#000000"  stroke-width="1" fill="#000000"/>
<circle cx="5084.35"  cy="658.405" r="5" stroke="#000000"  stroke-width="1" fill="#000000"/>
<circle cx="4567.54"  cy="946.425" r="5" stroke="#000000"  stroke-width="1" fill="#000000"/>
<circle cx="5708.1"  cy="624.24" r="5" stroke="#000000"  stroke-width="1" fill="#000000"/>
<circle cx="5502.965"  cy="-905.66" r="5" stroke="#000000"  stroke-width="1" fill="#000000"/>
<circle cx="3914.22"  cy="-1084.495" r="5" stroke="#000000"  stroke-width="1" fill="#000000"/>
<circle cx="3439.885"  cy="-518.82" r="5" stroke="#000000"  stroke-width="1" fill="#000000"/>
<circle cx="5293.16"  cy="-1524.21" r="5" stroke="#000000"  stroke-width="1" fill="#000000"/>
<circle cx="930.085"  cy="-531.7" r="5" stroke="#000000"  stroke-width="1" fill="#000000"/>
<circle cx="2491.805"  cy="-2937.59" r="5" stroke="#000000"  stroke-width="1" fill="#000000"/>
<circle cx="-1816.035"  cy="-2165.705" r="5" stroke="#000000"  stroke-width="1" fill="#000000"/>
<circle cx="-2559.965"  cy="-7277.54" r="5" stroke="#000000"  stroke-width="1" fill="#000000"/>
<circle cx="-2057.15"  cy="-6281.525" r="5" stroke="#000000"  stroke-width="1" fill="#000000"/>
<circle cx="3062.185"  cy="-2167.21" r="5" stroke="#000000"  stroke-width="1" fill="#000000"/>
<circle cx="2536.66"  cy="480.695" r="5" stroke="#000000"  stroke-width="1" fill="#000000"/>
<circle cx="1701.06"  cy="-1830.68" r="5" stroke="#000000"  stroke-width="1" fill="#000000"/>
<circle cx="-160.21"  cy="-3634.66" r="5" stroke="#000000"  stroke-width="1" fill="#000000"/>
<circle cx="1168.665"  cy="-1038.145" r="5" stroke="#000000"  stroke-width="1" fill="#000000"/>
<circle cx="-397.545"  cy="-1401.31" r="5" stroke="#000000"  stroke-width="1" fill="#000000"/>
<circle cx="2547.09"  cy="1366.855" r="5" stroke="#000000"  stroke-width="1" fill="#000000"/>
<circle cx="1187.95"  cy="-2949.045" r="5" stroke="#000000"  stroke-width="1" fill="#000000"/>
<circle cx="2117.515"  cy="-1842.965" r="5" stroke="#000000"  stroke-width="1" fill="#000000"/>
<circle cx="1120.24"  cy="481.725" r="5" stroke="#000000"  stroke-width="1" fill="#000000"/>
<circle cx="3032.795"  cy="-386.315" r="5" stroke="#000000"  stroke-width="1" fill="#000000"/>
<circle cx="2416.74"  cy="1810.78" r="5" stroke="#000000"  stroke-width="1" fill="#000000"/>
<circle cx="1453.445"  cy="-683.345" r="5" stroke="#000000"  stroke-width="1" fill="#000000"/>
<circle cx="1585.9"  cy="838.705" r="5" stroke="#000000"  stroke-width="1" fill="#000000"/>
<circle cx="4846.335"  cy="-3647.06" r="5" stroke="#000000"  stroke-width="1" fill="#000000"/>
<circle cx="-884.475"  cy="-6707.255" r="5" stroke="#000000"  stroke-width="1" fill="#000000"/>
<circle cx="6163.58"  cy="4478.285" r="5" stroke="#000000"  stroke-width="1" fill="#000000"/>
<circle cx="1134.785"  cy="3203.245" r="5" stroke="#000000"  stroke-width="1" fill="#000000"/>
<circle cx="933.62"  cy="2700.635" r="5" stroke="#000000"  stroke-width="1" fill="#000000"/>
<circle cx="-3311.745"  cy="-6720.27" r="5" stroke="#000000"  stroke-width="1" fill="#000000"/>
<circle cx="-3667.585"  cy="-4724.46" r="5" stroke="#000000"  stroke-width="1" fill="#000000"/>
<circle cx="3111.73"  cy="-2909.225" r="5" stroke="#000000"  stroke-width="1" fill="#000000"/>
<circle cx="7516.62"  cy="-4777.59" r="5" stroke="#000000"  stroke-width="1" fill="#000000"/>
<circle cx="3716.855"  cy="-7681.0" r="5" stroke="#000000"  stroke-width="1" fill="#000000"/>
<circle cx="3867.965"  cy="-5422.945" r="5" stroke="#000000"  stroke-width="1" fill="#000000"/>
<circle cx="-2284.28"  cy="-8468.46" r="5" stroke="#000000"  stroke-width="1" fill="#000000"/>
<circle cx="-2925.74"  cy="-9186.445" r="5" stroke="#000000"  stroke-width="1" fill="#000000"/>
<circle cx="-929.99"  cy="5601.52" r="5" stroke="#000000"  stroke-width="1" fill="#000000"/>
<circle cx="-4324.445"  cy="-3633.47" r="5" stroke="#000000"  stroke-width="1" fill="#000000"/>
<circle cx="-5764.89"  cy="-5223.17" r="5" stroke="#000000"  stroke-width="1" fill="#000000"/>
<circle cx="-3912.945"  cy="-6648.99" r="5" stroke="#000000"  stroke-width="1" fill="#000000"/>
<circle cx="-4330.275"  cy="-2538.855" r="5" stroke="#000000"  stroke-width="1" fill="#000000"/>
<circle cx="-2675.955"  cy="-6824.36" r="5" stroke="#000000"  stroke-width="1" fill="#000000"/>
<circle cx="-2947.45"  cy="-7507.745" r="5" stroke="#000000"  stroke-width="1" fill="#000000"/>
<circle cx="-3077.575"  cy="-5826.34" r="5" stroke="#000000"  stroke-width="1" fill="#000000"/>
<circle cx="4141.065"  cy="4386.61" r="5" stroke="#000000"  stroke-width="1" fill="#000000"/>
<circle cx="-3223.055"  cy="-4018.37" r="5" stroke="#000000"  stroke-width="1" fill="#000000"/>
<circle cx="-3469.65"  cy="-3346.565" r="5" stroke="#000000"  stroke-width="1" fill="#000000"/>
<circle cx="1770.45"  cy="5176.35" r="5" stroke="#000000"  stroke-width="1" fill="#000000"/>
<circle cx="4181.44"  cy="-6905.23" r="5" stroke="#000000"  stroke-width="1" fill="#000000"/>
<circle cx="4060.795"  cy="-6526.745" r="5" stroke="#000000"  stroke-width="1" fill="#000000"/>
<circle cx="3727.95"  cy="-6875.725" r="5" stroke="#000000"  stroke-width="1" fill="#000000"/>
 <line x1="-4650.12" y1="550.945" x2="-762.215" y2="-45.045" stroke="#000000" stroke-width="1" />
 <line x1="-4650.12" y1="550.945" x2="-5741.96" y2="151.675" stroke="#000000" stroke-width="1" />
 <line x1="-762.215" y1="-45.045" x2="2039.59" y2="-366.255" stroke="#000000" stroke-width="1" />
 <line x1="-762.215" y1="-45.045" x2="-913.255" y2="-2519.755" stroke="#000000" stroke-width="1" />
 <line x1="-762.215" y1="-45.045" x2="-3123.44" y2="-836.605" stroke="#000000" stroke-width="1" />
 <line x1="-762.215" y1="-45.045" x2="377.905" y2="1298.635" stroke="#000000" stroke-width="1" />
 <line x1="-762.215" y1="-45.045" x2="-793.92" y2="2250.54" stroke="#000000" stroke-width="1" />
 <line x1="-762.215" y1="-45.045" x2="-1226.96" y2="-60.33" stroke="#000000" stroke-width="1" />
 <line x1="-762.215" y1="-45.045" x2="809.375" y2="1774.735" stroke="#000000" stroke-width="1" />
 <line x1="-762.215" y1="-45.045" x2="-2156.0" y2="-1054.255" stroke="#000000" stroke-width="1" />
 <line x1="-762.215" y1="-45.045" x2="-2831.42" y2="1500.895" stroke="#000000" stroke-width="1" />
 <line x1="-762.215" y1="-45.045" x2="-635.875" y2="-733.325" stroke="#000000" stroke-width="1" />
 <line x1="-762.215" y1="-45.045" x2="-91.83" y2="-95.525" stroke="#000000" stroke-width="1" />
 <line x1="-762.215" y1="-45.045" x2="1239.3" y2="1257.645" stroke="#000000" stroke-width="1" />
 <line x1="-762.215" y1="-45.045" x2="-2305.985" y2="483.27" stroke="#000000" stroke-width="1" />
 <line x1="-762.215" y1="-45.045" x2="-2145.265" y2="1411.92" stroke="#000000" stroke-width="1" />
 <line x1="-762.215" y1="-45.045" x2="-3328.025" y2="1775.88" stroke="#000000" stroke-width="1" />
 <line x1="-762.215" y1="-45.045" x2="-1008.5" y2="868.91" stroke="#000000" stroke-width="1" />
 <line x1="-762.215" y1="-45.045" x2="-1501.47" y2="1541.735" stroke="#000000" stroke-width="1" />
 <line x1="-762.215" y1="-45.045" x2="-1037.075" y2="408.06" stroke="#000000" stroke-width="1" />
 <line x1="1743.66" y1="1568.575" x2="2039.59" y2="-366.255" stroke="#000000" stroke-width="1" />
 <line x1="2039.59" y1="-366.255" x2="1755.31" y2="4326.465" stroke="#000000" stroke-width="1" />
 <line x1="2039.59" y1="-366.255" x2="-2427.225" y2="-4627.99" stroke="#000000" stroke-width="1" />
 <line x1="2039.59" y1="-366.255" x2="3062.185" y2="-2167.21" stroke="#000000" stroke-width="1" />
 <line x1="2039.59" y1="-366.255" x2="2536.66" y2="480.695" stroke="#000000" stroke-width="1" />
 <line x1="2039.59" y1="-366.255" x2="1701.06" y2="-1830.68" stroke="#000000" stroke-width="1" />
 <line x1="2039.59" y1="-366.255" x2="-160.21" y2="-3634.66" stroke="#000000" stroke-width="1" />
 <line x1="2039.59" y1="-366.255" x2="1168.665" y2="-1038.145" stroke="#000000" stroke-width="1" />
 <line x1="2039.59" y1="-366.255" x2="-397.545" y2="-1401.31" stroke="#000000" stroke-width="1" />
 <line x1="2039.59" y1="-366.255" x2="2547.09" y2="1366.855" stroke="#000000" stroke-width="1" />
 <line x1="2039.59" y1="-366.255" x2="1187.95" y2="-2949.045" stroke="#000000" stroke-width="1" />
 <line x1="2039.59" y1="-366.255" x2="2117.515" y2="-1842.965" stroke="#000000" stroke-width="1" />
 <line x1="2039.59" y1="-366.255" x2="1120.24" y2="481.725" stroke="#000000" stroke-width="1" />
 <line x1="2039.59" y1="-366.255" x2="3032.795" y2="-386.315" stroke="#000000" stroke-width="1" />
 <line x1="2039.59" y1="-366.255" x2="2416.74" y2="1810.78" stroke="#000000" stroke-width="1" />
 <line x1="2039.59" y1="-366.255" x2="1453.445" y2="-683.345" stroke="#000000" stroke-width="1" />
 <line x1="2039.59" y1="-366.255" x2="1585.9" y2="838.705" stroke="#000000" stroke-width="1" />
 <line x1="2039.59" y1="-366.255" x2="1266.125" y2="-768.825" stroke="#000000" stroke-width="1" />
 <line x1="2039.59" y1="-366.255" x2="2703.71" y2="208.58" stroke="#000000" stroke-width="1" />
 <line x1="2039.59" y1="-366.255" x2="2067.035" y2="-1493.16" stroke="#000000" stroke-width="1" />
 <line x1="2039.59" y1="-366.255" x2="2899.88" y2="-1575.5" stroke="#000000" stroke-width="1" />
 <line x1="2039.59" y1="-366.255" x2="2835.61" y2="593.24" stroke="#000000" stroke-width="1" />
 <line x1="2039.59" y1="-366.255" x2="2322.005" y2="-2179.31" stroke="#000000" stroke-width="1" />
 <line x1="2039.59" y1="-366.255" x2="269.4" y2="-850.71" stroke="#000000" stroke-width="1" />
 <line x1="2039.59" y1="-366.255" x2="1127.585" y2="-2431.79" stroke="#000000" stroke-width="1" />
 <line x1="2039.59" y1="-366.255" x2="1603.49" y2="2171.845" stroke="#000000" stroke-width="1" />
 <line x1="2039.59" y1="-366.255" x2="2247.18" y2="1101.27" stroke="#000000" stroke-width="1" />
 <line x1="2039.59" y1="-366.255" x2="930.085" y2="-531.7" stroke="#000000" stroke-width="1" />
 <line x1="2039.59" y1="-366.255" x2="2491.805" y2="-2937.59" stroke="#000000" stroke-width="1" />
 <line x1="4686.145" y1="7458.365" x2="5283.96" y2="6255.02" stroke="#000000" stroke-width="1" />
 <line x1="5283.96" y1="6255.02" x2="6163.58" y2="4478.285" stroke="#000000" stroke-width="1" />
 <line x1="3915.01" y1="-2522.09" x2="3921.985" y2="-3361.98" stroke="#000000" stroke-width="1" />
 <line x1="3921.985" y1="-3361.98" x2="2347.75" y2="3140.125" stroke="#000000" stroke-width="1" />
 <line x1="3921.985" y1="-3361.98" x2="2288.17" y2="-4840.59" stroke="#000000" stroke-width="1" />
 <line x1="3921.985" y1="-3361.98" x2="3867.965" y2="-5422.945" stroke="#000000" stroke-width="1" />
 <line x1="3921.985" y1="-3361.98" x2="4849.875" y2="-2337.29" stroke="#000000" stroke-width="1" />
 <line x1="3921.985" y1="-3361.98" x2="2491.805" y2="-2937.59" stroke="#000000" stroke-width="1" />
 <line x1="3921.985" y1="-3361.98" x2="4846.335" y2="-3647.06" stroke="#000000" stroke-width="1" />
 <line x1="3921.985" y1="-3361.98" x2="3111.73" y2="-2909.225" stroke="#000000" stroke-width="1" />
 <line x1="-2263.44" y1="-1859.285" x2="-913.255" y2="-2519.755" stroke="#000000" stroke-width="1" />
 <line x1="-913.255" y1="-2519.755" x2="-1816.035" y2="-2165.705" stroke="#000000" stroke-width="1" />
 <line x1="-3123.44" y1="-836.605" x2="-4071.055" y2="-1408.18" stroke="#000000" stroke-width="1" />
 <line x1="377.905" y1="1298.635" x2="-1119.91" y2="4353.31" stroke="#000000" stroke-width="1" />
 <line x1="1239.3" y1="1257.645" x2="933.62" y2="2700.635" stroke="#000000" stroke-width="1" />
 <line x1="-5688.82" y1="-4189.185" x2="-4439.86" y2="-4975.25" stroke="#000000" stroke-width="1" />
 <line x1="-4439.86" y1="-4975.25" x2="-4324.445" y2="-3633.47" stroke="#000000" stroke-width="1" />
 <line x1="-4439.86" y1="-4975.25" x2="-5764.89" y2="-5223.17" stroke="#000000" stroke-width="1" />
 <line x1="-4439.86" y1="-4975.25" x2="-3912.945" y2="-6648.99" stroke="#000000" stroke-width="1" />
 <line x1="-4439.86" y1="-4975.25" x2="-5035.21" y2="-5841.175" stroke="#000000" stroke-width="1" />
 <line x1="-1119.91" y1="4353.31" x2="-929.99" y2="5601.52" stroke="#000000" stroke-width="1" />
 <line x1="5559.045" y1="1265.585" x2="4044.475" y2="130.18" stroke="#000000" stroke-width="1" />
 <line x1="4044.475" y1="130.18" x2="4719.045" y2="1649.595" stroke="#000000" stroke-width="1" />
 <line x1="4044.475" y1="130.18" x2="4459.725" y2="-667.515" stroke="#000000" stroke-width="1" />
 <line x1="4044.475" y1="130.18" x2="3759.305" y2="2146.655" stroke="#000000" stroke-width="1" />
 <line x1="4044.475" y1="130.18" x2="5291.13" y2="271.3" stroke="#000000" stroke-width="1" />
 <line x1="4044.475" y1="130.18" x2="3374.4" y2="1763.205" stroke="#000000" stroke-width="1" />
 <line x1="4044.475" y1="130.18" x2="5084.35" y2="658.405" stroke="#000000" stroke-width="1" />
 <line x1="4044.475" y1="130.18" x2="4567.54" y2="946.425" stroke="#000000" stroke-width="1" />
 <line x1="4044.475" y1="130.18" x2="5708.1" y2="624.24" stroke="#000000" stroke-width="1" />
 <line x1="4044.475" y1="130.18" x2="5502.965" y2="-905.66" stroke="#000000" stroke-width="1" />
 <line x1="4044.475" y1="130.18" x2="3914.22" y2="-1084.495" stroke="#000000" stroke-width="1" />
 <line x1="4044.475" y1="130.18" x2="3439.885" y2="-518.82" stroke="#000000" stroke-width="1" />
 <line x1="4044.475" y1="130.18" x2="5293.16" y2="-1524.21" stroke="#000000" stroke-width="1" />
 <line x1="4044.475" y1="130.18" x2="4162.985" y2="1290.115" stroke="#000000" stroke-width="1" />
 <line x1="4044.475" y1="130.18" x2="4849.875" y2="-2337.29" stroke="#000000" stroke-width="1" />
 <line x1="2535.53" y1="5610.28" x2="1755.31" y2="4326.465" stroke="#000000" stroke-width="1" />
 <line x1="1755.31" y1="4326.465" x2="1770.45" y2="5176.35" stroke="#000000" stroke-width="1" />
 <line x1="1755.31" y1="4326.465" x2="1096.45" y2="5007.945" stroke="#000000" stroke-width="1" />
 <line x1="1755.31" y1="4326.465" x2="1134.435" y2="5848.515" stroke="#000000" stroke-width="1" />
 <line x1="2781.14" y1="4303.585" x2="2347.75" y2="3140.125" stroke="#000000" stroke-width="1" />
 <line x1="2347.75" y1="3140.125" x2="4141.065" y2="4386.61" stroke="#000000" stroke-width="1" />
 <line x1="-3013.715" y1="-3505.895" x2="-2427.225" y2="-4627.99" stroke="#000000" stroke-width="1" />
 <line x1="-2427.225" y1="-4627.99" x2="-3223.055" y2="-4018.37" stroke="#000000" stroke-width="1" />
 <line x1="-2427.225" y1="-4627.99" x2="-3469.65" y2="-3346.565" stroke="#000000" stroke-width="1" />
 <line x1="-2427.225" y1="-4627.99" x2="-3667.585" y2="-4724.46" stroke="#000000" stroke-width="1" />
 <line x1="5851.485" y1="3316.99" x2="5957.375" y2="2461.025" stroke="#000000" stroke-width="1" />
 <line x1="5957.375" y1="2461.025" x2="4719.045" y2="1649.595" stroke="#000000" stroke-width="1" />
 <line x1="5957.375" y1="2461.025" x2="6163.58" y2="4478.285" stroke="#000000" stroke-width="1" />
 <line x1="2423.95" y1="-6989.83" x2="2288.17" y2="-4840.59" stroke="#000000" stroke-width="1" />
 <line x1="2423.95" y1="-6989.83" x2="1620.295" y2="-8195.79" stroke="#000000" stroke-width="1" />
 <line x1="2423.95" y1="-6989.83" x2="1946.7" y2="-5472.71" stroke="#000000" stroke-width="1" />
 <line x1="2423.95" y1="-6989.83" x2="1724.345" y2="-7507.25" stroke="#000000" stroke-width="1" />
 <line x1="4849.875" y1="-2337.29" x2="6697.02" y2="-3870.865" stroke="#000000" stroke-width="1" />
 <line x1="6697.02" y1="-3870.865" x2="7516.62" y2="-4777.59" stroke="#000000" stroke-width="1" />
 <line x1="-2559.965" y1="-7277.54" x2="-2057.15" y2="-6281.525" stroke="#000000" stroke-width="1" />
 <line x1="-2057.15" y1="-6281.525" x2="-3912.945" y2="-6648.99" stroke="#000000" stroke-width="1" />
 <line x1="-2057.15" y1="-6281.525" x2="-2675.955" y2="-6824.36" stroke="#000000" stroke-width="1" />
 <line x1="-2057.15" y1="-6281.525" x2="-2947.45" y2="-7507.745" stroke="#000000" stroke-width="1" />
 <line x1="-2057.15" y1="-6281.525" x2="-3077.575" y2="-5826.34" stroke="#000000" stroke-width="1" />
 <line x1="-2057.15" y1="-6281.525" x2="-160.21" y2="-3634.66" stroke="#000000" stroke-width="1" />
 <line x1="-2057.15" y1="-6281.525" x2="-884.475" y2="-6707.255" stroke="#000000" stroke-width="1" />
 <line x1="-2057.15" y1="-6281.525" x2="-3311.745" y2="-6720.27" stroke="#000000" stroke-width="1" />
 <line x1="-2057.15" y1="-6281.525" x2="-2284.28" y2="-8468.46" stroke="#000000" stroke-width="1" />
 <line x1="1134.785" y1="3203.245" x2="933.62" y2="2700.635" stroke="#000000" stroke-width="1" />
 <line x1="3716.855" y1="-7681.0" x2="3867.965" y2="-5422.945" stroke="#000000" stroke-width="1" />
 <line x1="3867.965" y1="-5422.945" x2="4181.44" y2="-6905.23" stroke="#000000" stroke-width="1" />
 <line x1="3867.965" y1="-5422.945" x2="4060.795" y2="-6526.745" stroke="#000000" stroke-width="1" />
 <line x1="3867.965" y1="-5422.945" x2="3727.95" y2="-6875.725" stroke="#000000" stroke-width="1" />
 <line x1="-2284.28" y1="-8468.46" x2="-2925.74" y2="-9186.445" stroke="#000000" stroke-width="1" />
 <line x1="-4324.445" y1="-3633.47" x2="-4330.275" y2="-2538.855" stroke="#000000" stroke-width="1" />
</svg>