<?xml version="1.0" encoding="UTF-8" standalone="no"?><!DOCTYPE svg PUBLIC "-//W3C//DTD SVG 1.1//EN" "http://www.w3.org/Graphics/SVG/1.1/DTD/svg11.dtd"><svg  width="326.205" height="286.79499999999996"    viewBox="-50 -50 326.205 286.79499999999996"  xmlns="http://www.w3.org/2000/svg" xmlns:xlink= "http://www.w3.org/1999/xlink"  ><rect   x="0" y="0" width="100%" height="100%" fill="white"/><circle cx="212.39"  cy="128.375" r="5" stroke="#000000"  stroke-width="1" fill="#000000"/>
<circle cx="150.84"  cy="153.675" r="5" stroke="#000000"  stroke-width="1" fill="#000000"/>
<circle cx="197.915"  cy="149.01" r="5" stroke="#000000"  stroke-width="1" fill="#000000"/>
<circle cx="248.01"  cy="94.98" r="5" stroke="#000000"  stroke-width="1" fill="#000000"/>
<circle cx="213.965"  cy="186.055" r="5" stroke="#000000"  stroke-width="1" fill="#000000"/>
<circle cx="233.955"  cy="184.13" r="5" stroke="#000000"  stroke-width="1" fill="#000000"/>
<circle cx="247.88"  cy="141.305" r="5" stroke="#000000"  stroke-width="1" fill="#000000"/>
<circle cx="255.68"  cy="120.37" r="5" stroke="#000000"  stroke-width="1" fill="#000000"/>
<circle cx="217.53"  cy="155.06" r="5" stroke="#000000"  stroke-width="1" fill="#000000"/>
<circle cx="248.2"  cy="159.47" r="5" stroke="#000000"  stroke-width="1" fill="#000000"/>
<circle cx="222.635"  cy="88.905" r="5" stroke="#000000"  stroke-width="1" fill="#000000"/>
<circle cx="235.14"  cy="160.865" r="5" stroke="#000000"  stroke-width="1" fill="#000000"/>
<circle cx="185.345"  cy="94.59" r="5" stroke="#000000"  stroke-width="1" fill="#000000"/>
<circle cx="230.475"  cy="139.02" r="5" stroke="#000000"  stroke-width="1" fill="#000000"/>
<circle cx="221.005"  cy="160.865" r="5" stroke="#000000"  stroke-width="1" fill="#000000"/>
<circle cx="220.57"  cy="166.665" r="5" stroke="#000000"  stroke-width="1" fill="#000000"/>
<circle cx="221.21"  cy="82.97" r="5" stroke="#000000"  stroke-width="1" fill="#000000"/>
<circle cx="228.215"  cy="160.865" r="5" stroke="#000000"  stroke-width="1" fill="#000000"/>
<circle cx="244.29"  cy="113.825" r="5" stroke="#000000"  stroke-width="1" fill="#000000"/>
<circle cx="219.935"  cy="98.31" r="5" stroke="#000000"  stroke-width="1" fill="#000000"/>
<circle cx="118.695"  cy="176.88" r="5" stroke="#000000"  stroke-width="1" fill="#000000"/>
<circle cx="133.695"  cy="126.88" r="5" stroke="#000000"  stroke-width="1" fill="#000000"/>
<circle cx="97.26"  cy="157.62" r="5" stroke="#000000"  stroke-width="1" fill="#000000"/>
<circle cx="139.685"  cy="168.46" r="5" stroke="#000000"  stroke-width="1" fill="#000000"/>
<circle cx="114.705"  cy="134.825" r="5" stroke="#000000"  stroke-width="1" fill="#000000"/>
<circle cx="178.98"  cy="168.115" r="5" stroke="#000000"  stroke-width="1" fill="#000000"/>
<circle cx="170.625"  cy="193.82" r="5" stroke="#000000"  stroke-width="1" fill="#000000"/>
<circle cx="142.135"  cy="175.765" r="5" stroke="#000000"  stroke-width="1" fill="#000000"/>
<circle cx="86.93"  cy="159.38" r="5" stroke="#000000"  stroke-width="1" fill="#000000"/>
<circle cx="164.125"  cy="135.345" r="5" stroke="#000000"  stroke-width="1" fill="#000000"/>
<circle cx="132.215"  cy="144.15" r="5" stroke="#000000"  stroke-width="1" fill="#000000"/>
<circle cx="155.68"  cy="181.67" r="5" stroke="#000000"  stroke-width="1" fill="#000000"/>
<circle cx="138.21"  cy="139.025" r="5" stroke="#000000"  stroke-width="1" fill="#000000"/>
<circle cx="180.105"  cy="212.27" r="5" stroke="#000000"  stroke-width="1" fill="#000000"/>
<circle cx="174.465"  cy="184.105" r="5" stroke="#000000"  stroke-width="1" fill="#000000"/>
<circle cx="159.415"  cy="160.96" r="5" stroke="#000000"  stroke-width="1" fill="#000000"/>
<circle cx="121.08"  cy="150.06" r="5" stroke="#000000"  stroke-width="1" fill="#000000"/>
<circle cx="157.795"  cy="142.015" r="5" stroke="#000000"  stroke-width="1" fill="#000000"/>
<circle cx="170.79"  cy="171.655" r="5" stroke="#000000"  stroke-width="1" fill="#000000"/>
<circle cx="160.565"  cy="166.765" r="5" stroke="#000000"  stroke-width="1" fill="#000000"/>
<circle cx="146.66"  cy="164.125" r="5" stroke="#000000"  stroke-width="1" fill="#000000"/>
<circle cx="166.385"  cy="165.855" r="5" stroke="#000000"  stroke-width="1" fill="#000000"/>
<circle cx="156.645"  cy="149.355" r="5" stroke="#000000"  stroke-width="1" fill="#000000"/>
<circle cx="145.04"  cy="158.31" r="5" stroke="#000000"  stroke-width="1" fill="#000000"/>
<circle cx="144.155"  cy="141.175" r="5" stroke="#000000"  stroke-width="1" fill="#000000"/>
<circle cx="127.895"  cy="132.495" r="5" stroke="#000000"  stroke-width="1" fill="#000000"/>
<circle cx="142.445"  cy="125.79" r="5" stroke="#000000"  stroke-width="1" fill="#000000"/>
<circle cx="158.04"  cy="136.14" r="5" stroke="#000000"  stroke-width="1" fill="#000000"/>
<circle cx="165.34"  cy="160.05" r="5" stroke="#000000"  stroke-width="1" fill="#000000"/>
<circle cx="88.27"  cy="47.3245" r="5" stroke="#000000"  stroke-width="1" fill="#000000"/>
<circle cx="89.07"  cy="90.765" r="5" stroke="#000000"  stroke-width="1" fill="#000000"/>
<circle cx="68.065"  cy="51.655" r="5" stroke="#000000"  stroke-width="1" fill="#000000"/>
<circle cx="78.49"  cy="216.29" r="5" stroke="#000000"  stroke-width="1" fill="#000000"/>
<circle cx="79.345"  cy="186.665" r="5" stroke="#000000"  stroke-width="1" fill="#000000"/>
<circle cx="218.17"  cy="198.645" r="5" stroke="#000000"  stroke-width="1" fill="#000000"/>
<circle cx="121.225"  cy="70.915" r="5" stroke="#000000"  stroke-width="1" fill="#000000"/>
<circle cx="92.4"  cy="77.17" r="5" stroke="#000000"  stroke-width="1" fill="#000000"/>
<circle cx="145.475"  cy="63.395" r="5" stroke="#000000"  stroke-width="1" fill="#000000"/>
<circle cx="147.155"  cy="84.435" r="5" stroke="#000000"  stroke-width="1" fill="#000000"/>
<circle cx="133.7"  cy="63.785" r="5" stroke="#000000"  stroke-width="1" fill="#000000"/>
<circle cx="151.505"  cy="70.72" r="5" stroke="#000000"  stroke-width="1" fill="#000000"/>
<circle cx="92.75"  cy="71.345" r="5" stroke="#000000"  stroke-width="1" fill="#000000"/>
<circle cx="140.225"  cy="52.18" r="5" stroke="#000000"  stroke-width="1" fill="#000000"/>
<circle cx="118.695"  cy="82.525" r="5" stroke="#000000"  stroke-width="1" fill="#000000"/>
<circle cx="98.715"  cy="76.84" r="5" stroke="#000000"  stroke-width="1" fill="#000000"/>
<circle cx="104.195"  cy="65.235" r="5" stroke="#000000"  stroke-width="1" fill="#000000"/>
<circle cx="132.57"  cy="77.71" r="5" stroke="#000000"  stroke-width="1" fill="#000000"/>
<circle cx="113.085"  cy="47.699" r="5" stroke="#000000"  stroke-width="1" fill="#000000"/>
<circle cx="107.88"  cy="55.48" r="5" stroke="#000000"  stroke-width="1" fill="#000000"/>
<circle cx="96.255"  cy="59.53" r="5" stroke="#000000"  stroke-width="1" fill="#000000"/>
<circle cx="237.25"  cy="215.62" r="5" stroke="#000000"  stroke-width="1" fill="#000000"/>
<circle cx="259.485"  cy="146.055" r="5" stroke="#000000"  stroke-width="1" fill="#000000"/>
<circle cx="276.205"  cy="103.325" r="5" stroke="#000000"  stroke-width="1" fill="#000000"/>
<circle cx="206.31"  cy="67.675" r="5" stroke="#000000"  stroke-width="1" fill="#000000"/>
<circle cx="226.925"  cy="71.19" r="5" stroke="#000000"  stroke-width="1" fill="#000000"/>
<circle cx="224.41"  cy="227.84" r="5" stroke="#000000"  stroke-width="1" fill="#000000"/>
<circle cx="103.31"  cy="141.175" r="5" stroke="#000000"  stroke-width="1" fill="#000000"/>
<circle cx="81.805"  cy="175.035" r="5" stroke="#000000"  stroke-width="1" fill="#000000"/>
<circle cx="78.065"  cy="165.25" r="5" stroke="#000000"  stroke-width="1" fill="#000000"/>
<circle cx="89.615"  cy="173.965" r="5" stroke="#000000"  stroke-width="1" fill="#000000"/>
<circle cx="180.26"  cy="41.833" r="5" stroke="#000000"  stroke-width="1" fill="#000000"/>
<circle cx="191.865"  cy="36.7465" r="5" stroke="#000000"  stroke-width="1" fill="#000000"/>
<circle cx="164.585"  cy="40.6605" r="5" stroke="#000000"  stroke-width="1" fill="#000000"/>
<circle cx="49.395"  cy="165.17" r="5" stroke="#000000"  stroke-width="1" fill="#000000"/>
<circle cx="37.785"  cy="156.115" r="5" stroke="#000000"  stroke-width="1" fill="#000000"/>
<circle cx="43.5835"  cy="166.41" r="5" stroke="#000000"  stroke-width="1" fill="#000000"/>
<circle cx="52.27"  cy="146.22" r="5" stroke="#000000"  stroke-width="1" fill="#000000"/>
<circle cx="40.666"  cy="139.055" r="5" stroke="#000000"  stroke-width="1" fill="#000000"/>
<circle cx="40.2635"  cy="172.245" r="5" stroke="#000000"  stroke-width="1" fill="#000000"/>
<circle cx="54.735"  cy="186.245" r="5" stroke="#000000"  stroke-width="1" fill="#000000"/>
<circle cx="34.4605"  cy="169.11" r="5" stroke="#000000"  stroke-width="1" fill="#000000"/>
<circle cx="46.139"  cy="178.1" r="5" stroke="#000000"  stroke-width="1" fill="#000000"/>
<circle cx="86.335"  cy="125.58" r="5" stroke="#000000"  stroke-width="1" fill="#000000"/>
<circle cx="67.22"  cy="182.825" r="5" stroke="#000000"  stroke-width="1" fill="#000000"/>
<circle cx="75.81"  cy="210.445" r="5" stroke="#000000"  stroke-width="1" fill="#000000"/>
<circle cx="79.175"  cy="204.595" r="5" stroke="#000000"  stroke-width="1" fill="#000000"/>
<circle cx="107.825"  cy="117.84" r="5" stroke="#000000"  stroke-width="1" fill="#000000"/>
<circle cx="103.085"  cy="129.455" r="5" stroke="#000000"  stroke-width="1" fill="#000000"/>
<circle cx="103.75"  cy="112.035" r="5" stroke="#000000"  stroke-width="1" fill="#000000"/>
<circle cx="61.73"  cy="125.735" r="5" stroke="#000000"  stroke-width="1" fill="#000000"/>
<circle cx="63.13"  cy="118.56" r="5" stroke="#000000"  stroke-width="1" fill="#000000"/>
<circle cx="84.56"  cy="108.175" r="5" stroke="#000000"  stroke-width="1" fill="#000000"/>
<circle cx="80.535"  cy="125.685" r="5" stroke="#000000"  stroke-width="1" fill="#000000"/>
<circle cx="271.085"  cy="150.26" r="5" stroke="#000000"  stroke-width="1" fill="#000000"/>
<circle cx="37.801"  cy="202.76" r="5" stroke="#000000"  stroke-width="1" fill="#000000"/>
<circle cx="32.52"  cy="184.345" r="5" stroke="#000000"  stroke-width="1" fill="#000000"/>
<circle cx="44.0085"  cy="203.04" r="5" stroke="#000000"  stroke-width="1" fill="#000000"/>
<circle cx="29.0585"  cy="139.455" r="5" stroke="#000000"  stroke-width="1" fill="#000000"/>
<circle cx="19.1105"  cy="163.305" r="5" stroke="#000000"  stroke-width="1" fill="#000000"/>
<circle cx="57.28"  cy="103.43" r="5" stroke="#000000"  stroke-width="1" fill="#000000"/>
<circle cx="54.49"  cy="109.695" r="5" stroke="#000000"  stroke-width="1" fill="#000000"/>
<circle cx="49.8935"  cy="96.455" r="5" stroke="#000000"  stroke-width="1" fill="#000000"/>
<circle cx="39.9165"  cy="113.375" r="5" stroke="#000000"  stroke-width="1" fill="#000000"/>
<circle cx="149.24"  cy="42.586" r="5" stroke="#000000"  stroke-width="1" fill="#000000"/>
<circle cx="143.265"  cy="46.376" r="5" stroke="#000000"  stroke-width="1" fill="#000000"/>
<circle cx="185.555"  cy="235.455" r="5" stroke="#000000"  stroke-width="1" fill="#000000"/>
<circle cx="12.605"  cy="154.605" r="5" stroke="#000000"  stroke-width="1" fill="#000000"/>
<circle cx="21.9625"  cy="186.37" r="5" stroke="#000000"  stroke-width="1" fill="#000000"/>
<circle cx="184.41"  cy="229.585" r="5" stroke="#000000"  stroke-width="1" fill="#000000"/>
<circle cx="177.23"  cy="236.795" r="5" stroke="#000000"  stroke-width="1" fill="#000000"/>
<circle cx="177.695"  cy="230.595" r="5" stroke="#000000"  stroke-width="1" fill="#000000"/>
 <line x1="212.39" y1="128.375" x2="150.84" y2="153.675" stroke="#000000" stroke-width="1" />
 <line x1="212.39" y1="128.375" x2="197.915" y2="149.01" stroke="#000000" stroke-width="1" />
 <line x1="212.39" y1="128.375" x2="248.01" y2="94.98" stroke="#000000" stroke-width="1" />
 <line x1="212.39" y1="128.375" x2="213.965" y2="186.055" stroke="#000000" stroke-width="1" />
 <line x1="212.39" y1="128.375" x2="233.955" y2="184.13" stroke="#000000" stroke-width="1" />
 <line x1="212.39" y1="128.375" x2="247.88" y2="141.305" stroke="#000000" stroke-width="1" />
 <line x1="212.39" y1="128.375" x2="255.68" y2="120.37" stroke="#000000" stroke-width="1" />
 <line x1="212.39" y1="128.375" x2="217.53" y2="155.06" stroke="#000000" stroke-width="1" />
 <line x1="212.39" y1="128.375" x2="248.2" y2="159.47" stroke="#000000" stroke-width="1" />
 <line x1="212.39" y1="128.375" x2="222.635" y2="88.905" stroke="#000000" stroke-width="1" />
 <line x1="212.39" y1="128.375" x2="235.14" y2="160.865" stroke="#000000" stroke-width="1" />
 <line x1="212.39" y1="128.375" x2="185.345" y2="94.59" stroke="#000000" stroke-width="1" />
 <line x1="212.39" y1="128.375" x2="230.475" y2="139.02" stroke="#000000" stroke-width="1" />
 <line x1="212.39" y1="128.375" x2="221.005" y2="160.865" stroke="#000000" stroke-width="1" />
 <line x1="212.39" y1="128.375" x2="220.57" y2="166.665" stroke="#000000" stroke-width="1" />
 <line x1="212.39" y1="128.375" x2="221.21" y2="82.97" stroke="#000000" stroke-width="1" />
 <line x1="212.39" y1="128.375" x2="228.215" y2="160.865" stroke="#000000" stroke-width="1" />
 <line x1="212.39" y1="128.375" x2="244.29" y2="113.825" stroke="#000000" stroke-width="1" />
 <line x1="212.39" y1="128.375" x2="219.935" y2="98.31" stroke="#000000" stroke-width="1" />
 <line x1="150.84" y1="153.675" x2="118.695" y2="176.88" stroke="#000000" stroke-width="1" />
 <line x1="150.84" y1="153.675" x2="133.695" y2="126.88" stroke="#000000" stroke-width="1" />
 <line x1="150.84" y1="153.675" x2="97.26" y2="157.62" stroke="#000000" stroke-width="1" />
 <line x1="150.84" y1="153.675" x2="139.685" y2="168.46" stroke="#000000" stroke-width="1" />
 <line x1="150.84" y1="153.675" x2="114.705" y2="134.825" stroke="#000000" stroke-width="1" />
 <line x1="150.84" y1="153.675" x2="178.98" y2="168.115" stroke="#000000" stroke-width="1" />
 <line x1="150.84" y1="153.675" x2="170.625" y2="193.82" stroke="#000000" stroke-width="1" />
 <line x1="150.84" y1="153.675" x2="142.135" y2="175.765" stroke="#000000" stroke-width="1" />
 <line x1="150.84" y1="153.675" x2="86.93" y2="159.38" stroke="#000000" stroke-width="1" />
 <line x1="150.84" y1="153.675" x2="164.125" y2="135.345" stroke="#000000" stroke-width="1" />
 <line x1="150.84" y1="153.675" x2="132.215" y2="144.15" stroke="#000000" stroke-width="1" />
 <line x1="150.84" y1="153.675" x2="155.68" y2="181.67" stroke="#000000" stroke-width="1" />
 <line x1="150.84" y1="153.675" x2="138.21" y2="139.025" stroke="#000000" stroke-width="1" />
 <line x1="150.84" y1="153.675" x2="180.105" y2="212.27" stroke="#000000" stroke-width="1" />
 <line x1="150.84" y1="153.675" x2="174.465" y2="184.105" stroke="#000000" stroke-width="1" />
 <line x1="150.84" y1="153.675" x2="159.415" y2="160.96" stroke="#000000" stroke-width="1" />
 <line x1="150.84" y1="153.675" x2="121.08" y2="150.06" stroke="#000000" stroke-width="1" />
 <line x1="150.84" y1="153.675" x2="157.795" y2="142.015" stroke="#000000" stroke-width="1" />
 <line x1="150.84" y1="153.675" x2="170.79" y2="171.655" stroke="#000000" stroke-width="1" />
 <line x1="150.84" y1="153.675" x2="160.565" y2="166.765" stroke="#000000" stroke-width="1" />
 <line x1="150.84" y1="153.675" x2="146.66" y2="164.125" stroke="#000000" stroke-width="1" />
 <line x1="150.84" y1="153.675" x2="166.385" y2="165.855" stroke="#000000" stroke-width="1" />
 <line x1="150.84" y1="153.675" x2="156.645" y2="149.355" stroke="#000000" stroke-width="1" />
 <line x1="150.84" y1="153.675" x2="145.04" y2="158.31" stroke="#000000" stroke-width="1" />
 <line x1="150.84" y1="153.675" x2="144.155" y2="141.175" stroke="#000000" stroke-width="1" />
 <line x1="150.84" y1="153.675" x2="127.895" y2="132.495" stroke="#000000" stroke-width="1" />
 <line x1="150.84" y1="153.675" x2="142.445" y2="125.79" stroke="#000000" stroke-width="1" />
 <line x1="150.84" y1="153.675" x2="158.04" y2="136.14" stroke="#000000" stroke-width="1" />
 <line x1="150.84" y1="153.675" x2="165.34" y2="160.05" stroke="#000000" stroke-width="1" />
 <line x1="213.965" y1="186.055" x2="218.17" y2="198.645" stroke="#000000" stroke-width="1" />
 <line x1="233.955" y1="184.13" x2="237.25" y2="215.62" stroke="#000000" stroke-width="1" />
 <line x1="247.88" y1="141.305" x2="259.485" y2="146.055" stroke="#000000" stroke-width="1" />
 <line x1="255.68" y1="120.37" x2="276.205" y2="103.325" stroke="#000000" stroke-width="1" />
 <line x1="222.635" y1="88.905" x2="206.31" y2="67.675" stroke="#000000" stroke-width="1" />
 <line x1="222.635" y1="88.905" x2="226.925" y2="71.19" stroke="#000000" stroke-width="1" />
 <line x1="97.26" y1="157.62" x2="103.31" y2="141.175" stroke="#000000" stroke-width="1" />
 <line x1="97.26" y1="157.62" x2="81.805" y2="175.035" stroke="#000000" stroke-width="1" />
 <line x1="97.26" y1="157.62" x2="78.065" y2="165.25" stroke="#000000" stroke-width="1" />
 <line x1="97.26" y1="157.62" x2="89.615" y2="173.965" stroke="#000000" stroke-width="1" />
 <line x1="114.705" y1="134.825" x2="86.335" y2="125.58" stroke="#000000" stroke-width="1" />
 <line x1="86.93" y1="159.38" x2="49.395" y2="165.17" stroke="#000000" stroke-width="1" />
 <line x1="180.105" y1="212.27" x2="184.41" y2="229.585" stroke="#000000" stroke-width="1" />
 <line x1="180.105" y1="212.27" x2="177.23" y2="236.795" stroke="#000000" stroke-width="1" />
 <line x1="180.105" y1="212.27" x2="177.695" y2="230.595" stroke="#000000" stroke-width="1" />
 <line x1="180.105" y1="212.27" x2="185.555" y2="235.455" stroke="#000000" stroke-width="1" />
 <line x1="88.27" y1="47.3245" x2="89.07" y2="90.765" stroke="#000000" stroke-width="1" />
 <line x1="88.27" y1="47.3245" x2="68.065" y2="51.655" stroke="#000000" stroke-width="1" />
 <line x1="89.07" y1="90.765" x2="121.225" y2="70.915" stroke="#000000" stroke-width="1" />
 <line x1="89.07" y1="90.765" x2="86.335" y2="125.58" stroke="#000000" stroke-width="1" />
 <line x1="78.49" y1="216.29" x2="79.345" y2="186.665" stroke="#000000" stroke-width="1" />
 <line x1="79.345" y1="186.665" x2="86.335" y2="125.58" stroke="#000000" stroke-width="1" />
 <line x1="79.345" y1="186.665" x2="67.22" y2="182.825" stroke="#000000" stroke-width="1" />
 <line x1="79.345" y1="186.665" x2="75.81" y2="210.445" stroke="#000000" stroke-width="1" />
 <line x1="79.345" y1="186.665" x2="79.175" y2="204.595" stroke="#000000" stroke-width="1" />
 <line x1="121.225" y1="70.915" x2="92.4" y2="77.17" stroke="#000000" stroke-width="1" />
 <line x1="121.225" y1="70.915" x2="145.475" y2="63.395" stroke="#000000" stroke-width="1" />
 <line x1="121.225" y1="70.915" x2="147.155" y2="84.435" stroke="#000000" stroke-width="1" />
 <line x1="121.225" y1="70.915" x2="133.7" y2="63.785" stroke="#000000" stroke-width="1" />
 <line x1="121.225" y1="70.915" x2="151.505" y2="70.72" stroke="#000000" stroke-width="1" />
 <line x1="121.225" y1="70.915" x2="92.75" y2="71.345" stroke="#000000" stroke-width="1" />
 <line x1="121.225" y1="70.915" x2="140.225" y2="52.18" stroke="#000000" stroke-width="1" />
 <line x1="121.225" y1="70.915" x2="118.695" y2="82.525" stroke="#000000" stroke-width="1" />
 <line x1="121.225" y1="70.915" x2="98.715" y2="76.84" stroke="#000000" stroke-width="1" />
 <line x1="121.225" y1="70.915" x2="104.195" y2="65.235" stroke="#000000" stroke-width="1" />
 <line x1="121.225" y1="70.915" x2="132.57" y2="77.71" stroke="#000000" stroke-width="1" />
 <line x1="121.225" y1="70.915" x2="113.085" y2="47.699" stroke="#000000" stroke-width="1" />
 <line x1="121.225" y1="70.915" x2="107.88" y2="55.48" stroke="#000000" stroke-width="1" />
 <line x1="121.225" y1="70.915" x2="96.255" y2="59.53" stroke="#000000" stroke-width="1" />
 <line x1="140.225" y1="52.18" x2="149.24" y2="42.586" stroke="#000000" stroke-width="1" />
 <line x1="237.25" y1="215.62" x2="224.41" y2="227.84" stroke="#000000" stroke-width="1" />
 <line x1="259.485" y1="146.055" x2="271.085" y2="150.26" stroke="#000000" stroke-width="1" />
 <line x1="180.26" y1="41.833" x2="191.865" y2="36.7465" stroke="#000000" stroke-width="1" />
 <line x1="180.26" y1="41.833" x2="164.585" y2="40.6605" stroke="#000000" stroke-width="1" />
 <line x1="164.585" y1="40.6605" x2="149.24" y2="42.586" stroke="#000000" stroke-width="1" />
 <line x1="49.395" y1="165.17" x2="37.785" y2="156.115" stroke="#000000" stroke-width="1" />
 <line x1="49.395" y1="165.17" x2="43.5835" y2="166.41" stroke="#000000" stroke-width="1" />
 <line x1="49.395" y1="165.17" x2="52.27" y2="146.22" stroke="#000000" stroke-width="1" />
 <line x1="49.395" y1="165.17" x2="40.666" y2="139.055" stroke="#000000" stroke-width="1" />
 <line x1="49.395" y1="165.17" x2="40.2635" y2="172.245" stroke="#000000" stroke-width="1" />
 <line x1="49.395" y1="165.17" x2="54.735" y2="186.245" stroke="#000000" stroke-width="1" />
 <line x1="49.395" y1="165.17" x2="34.4605" y2="169.11" stroke="#000000" stroke-width="1" />
 <line x1="49.395" y1="165.17" x2="46.139" y2="178.1" stroke="#000000" stroke-width="1" />
 <line x1="40.666" y1="139.055" x2="29.0585" y2="139.455" stroke="#000000" stroke-width="1" />
 <line x1="46.139" y1="178.1" x2="32.52" y2="184.345" stroke="#000000" stroke-width="1" />
 <line x1="86.335" y1="125.58" x2="107.825" y2="117.84" stroke="#000000" stroke-width="1" />
 <line x1="86.335" y1="125.58" x2="103.085" y2="129.455" stroke="#000000" stroke-width="1" />
 <line x1="86.335" y1="125.58" x2="103.75" y2="112.035" stroke="#000000" stroke-width="1" />
 <line x1="86.335" y1="125.58" x2="61.73" y2="125.735" stroke="#000000" stroke-width="1" />
 <line x1="86.335" y1="125.58" x2="63.13" y2="118.56" stroke="#000000" stroke-width="1" />
 <line x1="107.825" y1="117.84" x2="84.56" y2="108.175" stroke="#000000" stroke-width="1" />
 <line x1="107.825" y1="117.84" x2="80.535" y2="125.685" stroke="#000000" stroke-width="1" />
 <line x1="63.13" y1="118.56" x2="54.49" y2="109.695" stroke="#000000" stroke-width="1" />
 <line x1="37.801" y1="202.76" x2="32.52" y2="184.345" stroke="#000000" stroke-width="1" />
 <line x1="37.801" y1="202.76" x2="44.0085" y2="203.04" stroke="#000000" stroke-width="1" />
 <line x1="32.52" y1="184.345" x2="12.605" y2="154.605" stroke="#000000" stroke-width="1" />
 <line x1="32.52" y1="184.345" x2="21.9625" y2="186.37" stroke="#000000" stroke-width="1" />
 <line x1="32.52" y1="184.345" x2="19.1105" y2="163.305" stroke="#000000" stroke-width="1" />
 <line x1="57.28" y1="103.43" x2="54.49" y2="109.695" stroke="#000000" stroke-width="1" />
 <line x1="54.49" y1="109.695" x2="49.8935" y2="96.455" stroke="#000000" stroke-width="1" />
 <line x1="54.49" y1="109.695" x2="39.9165" y2="113.375" stroke="#000000" stroke-width="1" />
 <line x1="149.24" y1="42.586" x2="143.265" y2="46.376" stroke="#000000" stroke-width="1" />
</svg>