<?xml version="1.0" encoding="UTF-8" standalone="no"?><!DOCTYPE svg PUBLIC "-//W3C//DTD SVG 1.1//EN" "http://www.w3.org/Graphics/SVG/1.1/DTD/svg11.dtd"><svg  width="313.59999999999997" height="250.0485"    viewBox="-159.73500000000004 -117.3835 313.59999999999997 250.0485"  xmlns="http://www.w3.org/2000/svg" xmlns:xlink= "http://www.w3.org/1999/xlink"  ><rect   x="-109.73500000000004" y="-67.3835" width="100%" height="100%" fill="white"/><circle cx="90.04999999999998"  cy="24.245000000000005" r="5" stroke="#000000"  stroke-width="1" fill="#000000"/>
<circle cx="28.5"  cy="49.545000000000044" r="5" stroke="#000000"  stroke-width="1" fill="#000000"/>
<circle cx="75.57499999999999"  cy="44.879999999999995" r="5" stroke="#000000"  stroke-width="1" fill="#000000"/>
<circle cx="125.66999999999999"  cy="-9.149999999999977" r="5" stroke="#000000"  stroke-width="1" fill="#000000"/>
<circle cx="91.625"  cy="81.92500000000004" r="5" stroke="#000000"  stroke-width="1" fill="#000000"/>
<circle cx="111.61500000000001"  cy="80.00000000000003" r="5" stroke="#000000"  stroke-width="1" fill="#000000"/>
<circle cx="125.53999999999999"  cy="37.17500000000001" r="5" stroke="#000000"  stroke-width="1" fill="#000000"/>
<circle cx="133.34"  cy="16.24000000000001" r="5" stroke="#000000"  stroke-width="1" fill="#000000"/>
<circle cx="95.19"  cy="50.930000000000035" r="5" stroke="#000000"  stroke-width="1" fill="#000000"/>
<circle cx="125.85999999999999"  cy="55.34" r="5" stroke="#000000"  stroke-width="1" fill="#000000"/>
<circle cx="100.29499999999999"  cy="-15.224999999999994" r="5" stroke="#000000"  stroke-width="1" fill="#000000"/>
<circle cx="112.79999999999998"  cy="56.73500000000004" r="5" stroke="#000000"  stroke-width="1" fill="#000000"/>
<circle cx="63.004999999999995"  cy="-9.539999999999992" r="5" stroke="#000000"  stroke-width="1" fill="#000000"/>
<circle cx="108.13499999999999"  cy="34.890000000000015" r="5" stroke="#000000"  stroke-width="1" fill="#000000"/>
<circle cx="98.66499999999999"  cy="56.73500000000004" r="5" stroke="#000000"  stroke-width="1" fill="#000000"/>
<circle cx="98.22999999999999"  cy="62.535" r="5" stroke="#000000"  stroke-width="1" fill="#000000"/>
<circle cx="98.87"  cy="-21.16000000000001" r="5" stroke="#000000"  stroke-width="1" fill="#000000"/>
<circle cx="105.875"  cy="56.73500000000004" r="5" stroke="#000000"  stroke-width="1" fill="#000000"/>
<circle cx="121.94999999999999"  cy="9.695000000000022" r="5" stroke="#000000"  stroke-width="1" fill="#000000"/>
<circle cx="97.595"  cy="-5.819999999999993" r="5" stroke="#000000"  stroke-width="1" fill="#000000"/>
<circle cx="-3.6450000000000102"  cy="72.75000000000003" r="5" stroke="#000000"  stroke-width="1" fill="#000000"/>
<circle cx="11.35499999999999"  cy="22.75" r="5" stroke="#000000"  stroke-width="1" fill="#000000"/>
<circle cx="-25.079999999999984"  cy="53.49000000000004" r="5" stroke="#000000"  stroke-width="1" fill="#000000"/>
<circle cx="17.345"  cy="64.33000000000001" r="5" stroke="#000000"  stroke-width="1" fill="#000000"/>
<circle cx="-7.635000000000019"  cy="30.694999999999993" r="5" stroke="#000000"  stroke-width="1" fill="#000000"/>
<circle cx="56.639999999999986"  cy="63.98500000000004" r="5" stroke="#000000"  stroke-width="1" fill="#000000"/>
<circle cx="48.285"  cy="89.69000000000003" r="5" stroke="#000000"  stroke-width="1" fill="#000000"/>
<circle cx="19.794999999999987"  cy="71.63500000000002" r="5" stroke="#000000"  stroke-width="1" fill="#000000"/>
<circle cx="-35.41"  cy="55.25000000000003" r="5" stroke="#000000"  stroke-width="1" fill="#000000"/>
<circle cx="41.785"  cy="31.215000000000003" r="5" stroke="#000000"  stroke-width="1" fill="#000000"/>
<circle cx="9.875"  cy="40.02000000000001" r="5" stroke="#000000"  stroke-width="1" fill="#000000"/>
<circle cx="33.34"  cy="77.53999999999999" r="5" stroke="#000000"  stroke-width="1" fill="#000000"/>
<circle cx="15.870000000000005"  cy="34.89500000000001" r="5" stroke="#000000"  stroke-width="1" fill="#000000"/>
<circle cx="57.764999999999986"  cy="108.14000000000001" r="5" stroke="#000000"  stroke-width="1" fill="#000000"/>
<circle cx="52.125"  cy="79.975" r="5" stroke="#000000"  stroke-width="1" fill="#000000"/>
<circle cx="37.07499999999999"  cy="56.83000000000001" r="5" stroke="#000000"  stroke-width="1" fill="#000000"/>
<circle cx="-1.2600000000000193"  cy="45.93000000000001" r="5" stroke="#000000"  stroke-width="1" fill="#000000"/>
<circle cx="35.454999999999984"  cy="37.88499999999999" r="5" stroke="#000000"  stroke-width="1" fill="#000000"/>
<circle cx="48.44999999999999"  cy="67.525" r="5" stroke="#000000"  stroke-width="1" fill="#000000"/>
<circle cx="38.224999999999994"  cy="62.63500000000002" r="5" stroke="#000000"  stroke-width="1" fill="#000000"/>
<circle cx="24.319999999999993"  cy="59.99500000000003" r="5" stroke="#000000"  stroke-width="1" fill="#000000"/>
<circle cx="44.04499999999999"  cy="61.724999999999994" r="5" stroke="#000000"  stroke-width="1" fill="#000000"/>
<circle cx="34.30500000000001"  cy="45.224999999999994" r="5" stroke="#000000"  stroke-width="1" fill="#000000"/>
<circle cx="22.69999999999999"  cy="54.180000000000035" r="5" stroke="#000000"  stroke-width="1" fill="#000000"/>
<circle cx="21.814999999999998"  cy="37.045000000000016" r="5" stroke="#000000"  stroke-width="1" fill="#000000"/>
<circle cx="5.554999999999978"  cy="28.36500000000001" r="5" stroke="#000000"  stroke-width="1" fill="#000000"/>
<circle cx="20.10499999999999"  cy="21.660000000000025" r="5" stroke="#000000"  stroke-width="1" fill="#000000"/>
<circle cx="35.69999999999999"  cy="32.00999999999999" r="5" stroke="#000000"  stroke-width="1" fill="#000000"/>
<circle cx="43.0"  cy="55.920000000000044" r="5" stroke="#000000"  stroke-width="1" fill="#000000"/>
<circle cx="95.82999999999998"  cy="94.51500000000001" r="5" stroke="#000000"  stroke-width="1" fill="#000000"/>
<circle cx="114.91"  cy="111.49000000000004" r="5" stroke="#000000"  stroke-width="1" fill="#000000"/>
<circle cx="137.145"  cy="41.92500000000001" r="5" stroke="#000000"  stroke-width="1" fill="#000000"/>
<circle cx="153.86499999999992"  cy="-0.8049999999999784" r="5" stroke="#000000"  stroke-width="1" fill="#000000"/>
<circle cx="99.642"  cy="-16.07419999999999" r="5" stroke="#000000"  stroke-width="1" fill="#000000"/>
<circle cx="104.58500000000001"  cy="-32.93999999999997" r="5" stroke="#000000"  stroke-width="1" fill="#000000"/>
<circle cx="-23.870000000000005"  cy="50.20100000000002" r="5" stroke="#000000"  stroke-width="1" fill="#000000"/>
<circle cx="-25.698199999999986"  cy="54.18660000000003" r="5" stroke="#000000"  stroke-width="1" fill="#000000"/>
<circle cx="-25.847799999999978"  cy="53.79520000000005" r="5" stroke="#000000"  stroke-width="1" fill="#000000"/>
<circle cx="-25.38579999999999"  cy="54.14380000000003" r="5" stroke="#000000"  stroke-width="1" fill="#000000"/>
<circle cx="-36.005000000000024"  cy="21.450000000000017" r="5" stroke="#000000"  stroke-width="1" fill="#000000"/>
<circle cx="-72.945"  cy="61.03999999999999" r="5" stroke="#000000"  stroke-width="1" fill="#000000"/>
<circle cx="63.215"  cy="131.32500000000002" r="5" stroke="#000000"  stroke-width="1" fill="#000000"/>
<circle cx="62.06999999999999"  cy="125.45500000000001" r="5" stroke="#000000"  stroke-width="1" fill="#000000"/>
<circle cx="54.889999999999986"  cy="132.665" r="5" stroke="#000000"  stroke-width="1" fill="#000000"/>
<circle cx="55.35499999999999"  cy="126.465" r="5" stroke="#000000"  stroke-width="1" fill="#000000"/>
<circle cx="-34.07000000000002"  cy="-56.80549999999997" r="5" stroke="#000000"  stroke-width="1" fill="#000000"/>
<circle cx="-33.27000000000001"  cy="-13.36499999999998" r="5" stroke="#000000"  stroke-width="1" fill="#000000"/>
<circle cx="-54.275000000000006"  cy="-52.474999999999994" r="5" stroke="#000000"  stroke-width="1" fill="#000000"/>
<circle cx="-1.115000000000009"  cy="-33.214999999999975" r="5" stroke="#000000"  stroke-width="1" fill="#000000"/>
<circle cx="-37.57400000000001"  cy="39.59200000000001" r="5" stroke="#000000"  stroke-width="1" fill="#000000"/>
<circle cx="-37.40300000000002"  cy="33.667" r="5" stroke="#000000"  stroke-width="1" fill="#000000"/>
<circle cx="-39.82800000000003"  cy="32.899000000000015" r="5" stroke="#000000"  stroke-width="1" fill="#000000"/>
<circle cx="-38.110000000000014"  cy="38.42300000000003" r="5" stroke="#000000"  stroke-width="1" fill="#000000"/>
<circle cx="-37.43700000000001"  cy="37.253000000000014" r="5" stroke="#000000"  stroke-width="1" fill="#000000"/>
<circle cx="-29.939999999999998"  cy="-26.95999999999998" r="5" stroke="#000000"  stroke-width="1" fill="#000000"/>
<circle cx="23.13499999999999"  cy="-40.734999999999985" r="5" stroke="#000000"  stroke-width="1" fill="#000000"/>
<circle cx="24.814999999999998"  cy="-19.694999999999965" r="5" stroke="#000000"  stroke-width="1" fill="#000000"/>
<circle cx="11.359999999999985"  cy="-40.345" r="5" stroke="#000000"  stroke-width="1" fill="#000000"/>
<circle cx="29.164999999999992"  cy="-33.41" r="5" stroke="#000000"  stroke-width="1" fill="#000000"/>
<circle cx="-29.590000000000003"  cy="-32.785" r="5" stroke="#000000"  stroke-width="1" fill="#000000"/>
<circle cx="17.88499999999999"  cy="-51.94999999999996" r="5" stroke="#000000"  stroke-width="1" fill="#000000"/>
<circle cx="-3.6450000000000102"  cy="-21.605000000000004" r="5" stroke="#000000"  stroke-width="1" fill="#000000"/>
<circle cx="-23.625"  cy="-27.289999999999992" r="5" stroke="#000000"  stroke-width="1" fill="#000000"/>
<circle cx="-18.14500000000001"  cy="-38.89500000000001" r="5" stroke="#000000"  stroke-width="1" fill="#000000"/>
<circle cx="10.22999999999999"  cy="-26.419999999999987" r="5" stroke="#000000"  stroke-width="1" fill="#000000"/>
<circle cx="-9.255000000000024"  cy="-56.43100000000001" r="5" stroke="#000000"  stroke-width="1" fill="#000000"/>
<circle cx="-14.460000000000008"  cy="-48.650000000000006" r="5" stroke="#000000"  stroke-width="1" fill="#000000"/>
<circle cx="-26.085000000000008"  cy="-44.599999999999994" r="5" stroke="#000000"  stroke-width="1" fill="#000000"/>
<circle cx="26.900000000000006"  cy="-61.54400000000001" r="5" stroke="#000000"  stroke-width="1" fill="#000000"/>
<circle cx="102.07"  cy="123.71000000000001" r="5" stroke="#000000"  stroke-width="1" fill="#000000"/>
<circle cx="148.74499999999995"  cy="46.129999999999995" r="5" stroke="#000000"  stroke-width="1" fill="#000000"/>
<circle cx="42.245000000000005"  cy="-63.46950000000001" r="5" stroke="#000000"  stroke-width="1" fill="#000000"/>
<circle cx="20.924999999999983"  cy="-57.75399999999999" r="5" stroke="#000000"  stroke-width="1" fill="#000000"/>
<circle cx="57.91999999999999"  cy="-62.297" r="5" stroke="#000000"  stroke-width="1" fill="#000000"/>
<circle cx="69.525"  cy="-67.3835" r="5" stroke="#000000"  stroke-width="1" fill="#000000"/>
<circle cx="-84.555"  cy="51.98500000000004" r="5" stroke="#000000"  stroke-width="1" fill="#000000"/>
<circle cx="-78.75649999999999"  cy="62.28" r="5" stroke="#000000"  stroke-width="1" fill="#000000"/>
<circle cx="-70.07"  cy="42.09" r="5" stroke="#000000"  stroke-width="1" fill="#000000"/>
<circle cx="-81.674"  cy="34.92500000000001" r="5" stroke="#000000"  stroke-width="1" fill="#000000"/>
<circle cx="-82.07650000000001"  cy="68.11500000000004" r="5" stroke="#000000"  stroke-width="1" fill="#000000"/>
<circle cx="-67.60499999999999"  cy="82.11500000000004" r="5" stroke="#000000"  stroke-width="1" fill="#000000"/>
<circle cx="-87.87950000000001"  cy="64.98000000000005" r="5" stroke="#000000"  stroke-width="1" fill="#000000"/>
<circle cx="-76.201"  cy="73.97" r="5" stroke="#000000"  stroke-width="1" fill="#000000"/>
<circle cx="-93.2815"  cy="35.32500000000002" r="5" stroke="#000000"  stroke-width="1" fill="#000000"/>
<circle cx="-89.82"  cy="80.215" r="5" stroke="#000000"  stroke-width="1" fill="#000000"/>
<circle cx="-14.515000000000015"  cy="13.710000000000008" r="5" stroke="#000000"  stroke-width="1" fill="#000000"/>
<circle cx="-19.255000000000024"  cy="25.325000000000017" r="5" stroke="#000000"  stroke-width="1" fill="#000000"/>
<circle cx="-18.590000000000003"  cy="7.905000000000001" r="5" stroke="#000000"  stroke-width="1" fill="#000000"/>
<circle cx="-60.610000000000014"  cy="21.605000000000018" r="5" stroke="#000000"  stroke-width="1" fill="#000000"/>
<circle cx="-59.21000000000001"  cy="14.430000000000007" r="5" stroke="#000000"  stroke-width="1" fill="#000000"/>
<circle cx="-19.168000000000006"  cy="11.777000000000015" r="5" stroke="#000000"  stroke-width="1" fill="#000000"/>
<circle cx="-19.973000000000013"  cy="15.27900000000001" r="5" stroke="#000000"  stroke-width="1" fill="#000000"/>
<circle cx="-67.85"  cy="5.564999999999998" r="5" stroke="#000000"  stroke-width="1" fill="#000000"/>
<circle cx="-72.44649999999999"  cy="-7.674999999999983" r="5" stroke="#000000"  stroke-width="1" fill="#000000"/>
<circle cx="-84.53900000000002"  cy="98.63000000000002" r="5" stroke="#000000"  stroke-width="1" fill="#000000"/>
<circle cx="-78.3315"  cy="98.91" r="5" stroke="#000000"  stroke-width="1" fill="#000000"/>
<circle cx="-103.2295"  cy="59.17500000000004" r="5" stroke="#000000"  stroke-width="1" fill="#000000"/>
<circle cx="-109.73500000000004"  cy="50.474999999999994" r="5" stroke="#000000"  stroke-width="1" fill="#000000"/>
<circle cx="-100.3775"  cy="82.24000000000004" r="5" stroke="#000000"  stroke-width="1" fill="#000000"/>
<circle cx="-65.06"  cy="-0.6999999999999886" r="5" stroke="#000000"  stroke-width="1" fill="#000000"/>
<circle cx="-82.42350000000002"  cy="9.245000000000005" r="5" stroke="#000000"  stroke-width="1" fill="#000000"/>
 <line x1="90.04999999999998" y1="24.245000000000005" x2="28.5" y2="49.545000000000044" stroke="#000000" stroke-width="1" />
 <line x1="90.04999999999998" y1="24.245000000000005" x2="75.57499999999999" y2="44.879999999999995" stroke="#000000" stroke-width="1" />
 <line x1="90.04999999999998" y1="24.245000000000005" x2="125.66999999999999" y2="-9.149999999999977" stroke="#000000" stroke-width="1" />
 <line x1="90.04999999999998" y1="24.245000000000005" x2="91.625" y2="81.92500000000004" stroke="#000000" stroke-width="1" />
 <line x1="90.04999999999998" y1="24.245000000000005" x2="111.61500000000001" y2="80.00000000000003" stroke="#000000" stroke-width="1" />
 <line x1="90.04999999999998" y1="24.245000000000005" x2="125.53999999999999" y2="37.17500000000001" stroke="#000000" stroke-width="1" />
 <line x1="90.04999999999998" y1="24.245000000000005" x2="133.34" y2="16.24000000000001" stroke="#000000" stroke-width="1" />
 <line x1="90.04999999999998" y1="24.245000000000005" x2="95.19" y2="50.930000000000035" stroke="#000000" stroke-width="1" />
 <line x1="90.04999999999998" y1="24.245000000000005" x2="125.85999999999999" y2="55.34" stroke="#000000" stroke-width="1" />
 <line x1="90.04999999999998" y1="24.245000000000005" x2="100.29499999999999" y2="-15.224999999999994" stroke="#000000" stroke-width="1" />
 <line x1="90.04999999999998" y1="24.245000000000005" x2="112.79999999999998" y2="56.73500000000004" stroke="#000000" stroke-width="1" />
 <line x1="90.04999999999998" y1="24.245000000000005" x2="63.004999999999995" y2="-9.539999999999992" stroke="#000000" stroke-width="1" />
 <line x1="90.04999999999998" y1="24.245000000000005" x2="108.13499999999999" y2="34.890000000000015" stroke="#000000" stroke-width="1" />
 <line x1="90.04999999999998" y1="24.245000000000005" x2="98.66499999999999" y2="56.73500000000004" stroke="#000000" stroke-width="1" />
 <line x1="90.04999999999998" y1="24.245000000000005" x2="98.22999999999999" y2="62.535" stroke="#000000" stroke-width="1" />
 <line x1="90.04999999999998" y1="24.245000000000005" x2="98.87" y2="-21.16000000000001" stroke="#000000" stroke-width="1" />
 <line x1="90.04999999999998" y1="24.245000000000005" x2="105.875" y2="56.73500000000004" stroke="#000000" stroke-width="1" />
 <line x1="90.04999999999998" y1="24.245000000000005" x2="121.94999999999999" y2="9.695000000000022" stroke="#000000" stroke-width="1" />
 <line x1="90.04999999999998" y1="24.245000000000005" x2="97.595" y2="-5.819999999999993" stroke="#000000" stroke-width="1" />
 <line x1="28.5" y1="49.545000000000044" x2="-3.6450000000000102" y2="72.75000000000003" stroke="#000000" stroke-width="1" />
 <line x1="28.5" y1="49.545000000000044" x2="11.35499999999999" y2="22.75" stroke="#000000" stroke-width="1" />
 <line x1="28.5" y1="49.545000000000044" x2="-25.079999999999984" y2="53.49000000000004" stroke="#000000" stroke-width="1" />
 <line x1="28.5" y1="49.545000000000044" x2="17.345" y2="64.33000000000001" stroke="#000000" stroke-width="1" />
 <line x1="28.5" y1="49.545000000000044" x2="-7.635000000000019" y2="30.694999999999993" stroke="#000000" stroke-width="1" />
 <line x1="28.5" y1="49.545000000000044" x2="56.639999999999986" y2="63.98500000000004" stroke="#000000" stroke-width="1" />
 <line x1="28.5" y1="49.545000000000044" x2="48.285" y2="89.69000000000003" stroke="#000000" stroke-width="1" />
 <line x1="28.5" y1="49.545000000000044" x2="19.794999999999987" y2="71.63500000000002" stroke="#000000" stroke-width="1" />
 <line x1="28.5" y1="49.545000000000044" x2="-35.41" y2="55.25000000000003" stroke="#000000" stroke-width="1" />
 <line x1="28.5" y1="49.545000000000044" x2="41.785" y2="31.215000000000003" stroke="#000000" stroke-width="1" />
 <line x1="28.5" y1="49.545000000000044" x2="9.875" y2="40.02000000000001" stroke="#000000" stroke-width="1" />
 <line x1="28.5" y1="49.545000000000044" x2="33.34" y2="77.53999999999999" stroke="#000000" stroke-width="1" />
 <line x1="28.5" y1="49.545000000000044" x2="15.870000000000005" y2="34.89500000000001" stroke="#000000" stroke-width="1" />
 <line x1="28.5" y1="49.545000000000044" x2="57.764999999999986" y2="108.14000000000001" stroke="#000000" stroke-width="1" />
 <line x1="28.5" y1="49.545000000000044" x2="52.125" y2="79.975" stroke="#000000" stroke-width="1" />
 <line x1="28.5" y1="49.545000000000044" x2="37.07499999999999" y2="56.83000000000001" stroke="#000000" stroke-width="1" />
 <line x1="28.5" y1="49.545000000000044" x2="-1.2600000000000193" y2="45.93000000000001" stroke="#000000" stroke-width="1" />
 <line x1="28.5" y1="49.545000000000044" x2="35.454999999999984" y2="37.88499999999999" stroke="#000000" stroke-width="1" />
 <line x1="28.5" y1="49.545000000000044" x2="48.44999999999999" y2="67.525" stroke="#000000" stroke-width="1" />
 <line x1="28.5" y1="49.545000000000044" x2="38.224999999999994" y2="62.63500000000002" stroke="#000000" stroke-width="1" />
 <line x1="28.5" y1="49.545000000000044" x2="24.319999999999993" y2="59.99500000000003" stroke="#000000" stroke-width="1" />
 <line x1="28.5" y1="49.545000000000044" x2="44.04499999999999" y2="61.724999999999994" stroke="#000000" stroke-width="1" />
 <line x1="28.5" y1="49.545000000000044" x2="34.30500000000001" y2="45.224999999999994" stroke="#000000" stroke-width="1" />
 <line x1="28.5" y1="49.545000000000044" x2="22.69999999999999" y2="54.180000000000035" stroke="#000000" stroke-width="1" />
 <line x1="28.5" y1="49.545000000000044" x2="21.814999999999998" y2="37.045000000000016" stroke="#000000" stroke-width="1" />
 <line x1="28.5" y1="49.545000000000044" x2="5.554999999999978" y2="28.36500000000001" stroke="#000000" stroke-width="1" />
 <line x1="28.5" y1="49.545000000000044" x2="20.10499999999999" y2="21.660000000000025" stroke="#000000" stroke-width="1" />
 <line x1="28.5" y1="49.545000000000044" x2="35.69999999999999" y2="32.00999999999999" stroke="#000000" stroke-width="1" />
 <line x1="28.5" y1="49.545000000000044" x2="43.0" y2="55.920000000000044" stroke="#000000" stroke-width="1" />
 <line x1="91.625" y1="81.92500000000004" x2="95.82999999999998" y2="94.51500000000001" stroke="#000000" stroke-width="1" />
 <line x1="111.61500000000001" y1="80.00000000000003" x2="114.91" y2="111.49000000000004" stroke="#000000" stroke-width="1" />
 <line x1="125.53999999999999" y1="37.17500000000001" x2="137.145" y2="41.92500000000001" stroke="#000000" stroke-width="1" />
 <line x1="133.34" y1="16.24000000000001" x2="153.86499999999992" y2="-0.8049999999999784" stroke="#000000" stroke-width="1" />
 <line x1="100.29499999999999" y1="-15.224999999999994" x2="99.642" y2="-16.07419999999999" stroke="#000000" stroke-width="1" />
 <line x1="100.29499999999999" y1="-15.224999999999994" x2="104.58500000000001" y2="-32.93999999999997" stroke="#000000" stroke-width="1" />
 <line x1="-25.079999999999984" y1="53.49000000000004" x2="-23.870000000000005" y2="50.20100000000002" stroke="#000000" stroke-width="1" />
 <line x1="-25.079999999999984" y1="53.49000000000004" x2="-25.698199999999986" y2="54.18660000000003" stroke="#000000" stroke-width="1" />
 <line x1="-25.079999999999984" y1="53.49000000000004" x2="-25.847799999999978" y2="53.79520000000005" stroke="#000000" stroke-width="1" />
 <line x1="-25.079999999999984" y1="53.49000000000004" x2="-25.38579999999999" y2="54.14380000000003" stroke="#000000" stroke-width="1" />
 <line x1="-7.635000000000019" y1="30.694999999999993" x2="-36.005000000000024" y2="21.450000000000017" stroke="#000000" stroke-width="1" />
 <line x1="-35.41" y1="55.25000000000003" x2="-72.945" y2="61.03999999999999" stroke="#000000" stroke-width="1" />
 <line x1="57.764999999999986" y1="108.14000000000001" x2="63.215" y2="131.32500000000002" stroke="#000000" stroke-width="1" />
 <line x1="57.764999999999986" y1="108.14000000000001" x2="62.06999999999999" y2="125.45500000000001" stroke="#000000" stroke-width="1" />
 <line x1="57.764999999999986" y1="108.14000000000001" x2="54.889999999999986" y2="132.665" stroke="#000000" stroke-width="1" />
 <line x1="57.764999999999986" y1="108.14000000000001" x2="55.35499999999999" y2="126.465" stroke="#000000" stroke-width="1" />
 <line x1="114.91" y1="111.49000000000004" x2="102.07" y2="123.71000000000001" stroke="#000000" stroke-width="1" />
 <line x1="137.145" y1="41.92500000000001" x2="148.74499999999995" y2="46.129999999999995" stroke="#000000" stroke-width="1" />
 <line x1="-36.005000000000024" y1="21.450000000000017" x2="-14.515000000000015" y2="13.710000000000008" stroke="#000000" stroke-width="1" />
 <line x1="-36.005000000000024" y1="21.450000000000017" x2="-19.255000000000024" y2="25.325000000000017" stroke="#000000" stroke-width="1" />
 <line x1="-36.005000000000024" y1="21.450000000000017" x2="-18.590000000000003" y2="7.905000000000001" stroke="#000000" stroke-width="1" />
 <line x1="-36.005000000000024" y1="21.450000000000017" x2="-60.610000000000014" y2="21.605000000000018" stroke="#000000" stroke-width="1" />
 <line x1="-36.005000000000024" y1="21.450000000000017" x2="-59.21000000000001" y2="14.430000000000007" stroke="#000000" stroke-width="1" />
 <line x1="-36.005000000000024" y1="21.450000000000017" x2="-33.27000000000001" y2="-13.36499999999998" stroke="#000000" stroke-width="1" />
 <line x1="-36.005000000000024" y1="21.450000000000017" x2="-37.40300000000002" y2="33.667" stroke="#000000" stroke-width="1" />
 <line x1="-72.945" y1="61.03999999999999" x2="-84.555" y2="51.98500000000004" stroke="#000000" stroke-width="1" />
 <line x1="-72.945" y1="61.03999999999999" x2="-78.75649999999999" y2="62.28" stroke="#000000" stroke-width="1" />
 <line x1="-72.945" y1="61.03999999999999" x2="-70.07" y2="42.09" stroke="#000000" stroke-width="1" />
 <line x1="-72.945" y1="61.03999999999999" x2="-81.674" y2="34.92500000000001" stroke="#000000" stroke-width="1" />
 <line x1="-72.945" y1="61.03999999999999" x2="-82.07650000000001" y2="68.11500000000004" stroke="#000000" stroke-width="1" />
 <line x1="-72.945" y1="61.03999999999999" x2="-67.60499999999999" y2="82.11500000000004" stroke="#000000" stroke-width="1" />
 <line x1="-72.945" y1="61.03999999999999" x2="-87.87950000000001" y2="64.98000000000005" stroke="#000000" stroke-width="1" />
 <line x1="-72.945" y1="61.03999999999999" x2="-76.201" y2="73.97" stroke="#000000" stroke-width="1" />
 <line x1="-34.07000000000002" y1="-56.80549999999997" x2="-33.27000000000001" y2="-13.36499999999998" stroke="#000000" stroke-width="1" />
 <line x1="-34.07000000000002" y1="-56.80549999999997" x2="-54.275000000000006" y2="-52.474999999999994" stroke="#000000" stroke-width="1" />
 <line x1="-33.27000000000001" y1="-13.36499999999998" x2="-1.115000000000009" y2="-33.214999999999975" stroke="#000000" stroke-width="1" />
 <line x1="-1.115000000000009" y1="-33.214999999999975" x2="-29.939999999999998" y2="-26.95999999999998" stroke="#000000" stroke-width="1" />
 <line x1="-1.115000000000009" y1="-33.214999999999975" x2="23.13499999999999" y2="-40.734999999999985" stroke="#000000" stroke-width="1" />
 <line x1="-1.115000000000009" y1="-33.214999999999975" x2="24.814999999999998" y2="-19.694999999999965" stroke="#000000" stroke-width="1" />
 <line x1="-1.115000000000009" y1="-33.214999999999975" x2="11.359999999999985" y2="-40.345" stroke="#000000" stroke-width="1" />
 <line x1="-1.115000000000009" y1="-33.214999999999975" x2="29.164999999999992" y2="-33.41" stroke="#000000" stroke-width="1" />
 <line x1="-1.115000000000009" y1="-33.214999999999975" x2="-29.590000000000003" y2="-32.785" stroke="#000000" stroke-width="1" />
 <line x1="-1.115000000000009" y1="-33.214999999999975" x2="17.88499999999999" y2="-51.94999999999996" stroke="#000000" stroke-width="1" />
 <line x1="-1.115000000000009" y1="-33.214999999999975" x2="-3.6450000000000102" y2="-21.605000000000004" stroke="#000000" stroke-width="1" />
 <line x1="-1.115000000000009" y1="-33.214999999999975" x2="-23.625" y2="-27.289999999999992" stroke="#000000" stroke-width="1" />
 <line x1="-1.115000000000009" y1="-33.214999999999975" x2="-18.14500000000001" y2="-38.89500000000001" stroke="#000000" stroke-width="1" />
 <line x1="-1.115000000000009" y1="-33.214999999999975" x2="10.22999999999999" y2="-26.419999999999987" stroke="#000000" stroke-width="1" />
 <line x1="-1.115000000000009" y1="-33.214999999999975" x2="-9.255000000000024" y2="-56.43100000000001" stroke="#000000" stroke-width="1" />
 <line x1="-1.115000000000009" y1="-33.214999999999975" x2="-14.460000000000008" y2="-48.650000000000006" stroke="#000000" stroke-width="1" />
 <line x1="-1.115000000000009" y1="-33.214999999999975" x2="-26.085000000000008" y2="-44.599999999999994" stroke="#000000" stroke-width="1" />
 <line x1="-37.57400000000001" y1="39.59200000000001" x2="-37.40300000000002" y2="33.667" stroke="#000000" stroke-width="1" />
 <line x1="-37.40300000000002" y1="33.667" x2="-39.82800000000003" y2="32.899000000000015" stroke="#000000" stroke-width="1" />
 <line x1="-37.40300000000002" y1="33.667" x2="-38.110000000000014" y2="38.42300000000003" stroke="#000000" stroke-width="1" />
 <line x1="-37.40300000000002" y1="33.667" x2="-37.43700000000001" y2="37.253000000000014" stroke="#000000" stroke-width="1" />
 <line x1="17.88499999999999" y1="-51.94999999999996" x2="26.900000000000006" y2="-61.54400000000001" stroke="#000000" stroke-width="1" />
 <line x1="26.900000000000006" y1="-61.54400000000001" x2="42.245000000000005" y2="-63.46950000000001" stroke="#000000" stroke-width="1" />
 <line x1="26.900000000000006" y1="-61.54400000000001" x2="20.924999999999983" y2="-57.75399999999999" stroke="#000000" stroke-width="1" />
 <line x1="42.245000000000005" y1="-63.46950000000001" x2="57.91999999999999" y2="-62.297" stroke="#000000" stroke-width="1" />
 <line x1="57.91999999999999" y1="-62.297" x2="69.525" y2="-67.3835" stroke="#000000" stroke-width="1" />
 <line x1="-81.674" y1="34.92500000000001" x2="-93.2815" y2="35.32500000000002" stroke="#000000" stroke-width="1" />
 <line x1="-76.201" y1="73.97" x2="-89.82" y2="80.215" stroke="#000000" stroke-width="1" />
 <line x1="-89.82" y1="80.215" x2="-103.2295" y2="59.17500000000004" stroke="#000000" stroke-width="1" />
 <line x1="-89.82" y1="80.215" x2="-109.73500000000004" y2="50.474999999999994" stroke="#000000" stroke-width="1" />
 <line x1="-89.82" y1="80.215" x2="-100.3775" y2="82.24000000000004" stroke="#000000" stroke-width="1" />
 <line x1="-89.82" y1="80.215" x2="-84.53900000000002" y2="98.63000000000002" stroke="#000000" stroke-width="1" />
 <line x1="-14.515000000000015" y1="13.710000000000008" x2="-19.168000000000006" y2="11.777000000000015" stroke="#000000" stroke-width="1" />
 <line x1="-14.515000000000015" y1="13.710000000000008" x2="-19.973000000000013" y2="15.27900000000001" stroke="#000000" stroke-width="1" />
 <line x1="-59.21000000000001" y1="14.430000000000007" x2="-67.85" y2="5.564999999999998" stroke="#000000" stroke-width="1" />
 <line x1="-67.85" y1="5.564999999999998" x2="-82.42350000000002" y2="9.245000000000005" stroke="#000000" stroke-width="1" />
 <line x1="-67.85" y1="5.564999999999998" x2="-72.44649999999999" y2="-7.674999999999983" stroke="#000000" stroke-width="1" />
 <line x1="-67.85" y1="5.564999999999998" x2="-65.06" y2="-0.6999999999999886" stroke="#000000" stroke-width="1" />
 <line x1="-84.53900000000002" y1="98.63000000000002" x2="-78.3315" y2="98.91" stroke="#000000" stroke-width="1" />
</svg>