<?xml version="1.0" encoding="UTF-8" standalone="no"?><!DOCTYPE svg PUBLIC "-//W3C//DTD SVG 1.1//EN" "http://www.w3.org/Graphics/SVG/1.1/DTD/svg11.dtd"><svg  width="325.11500000000007" height="276.53599999999994"    viewBox="-159.73500000000004 -143.87099999999995 325.11500000000007 276.53599999999994"  xmlns="http://www.w3.org/2000/svg" xmlns:xlink= "http://www.w3.org/1999/xlink"  ><rect   x="-109.73500000000004" y="-93.87099999999995" width="100%" height="100%" fill="white"/><circle cx="90.04999999999998"  cy="24.245000000000005" r="5" stroke="#000000"  stroke-width="1" fill="#000000"/>
<circle cx="28.5"  cy="49.545000000000044" r="5" stroke="#000000"  stroke-width="1" fill="#000000"/>
<circle cx="75.57499999999999"  cy="44.879999999999995" r="5" stroke="#000000"  stroke-width="1" fill="#000000"/>
<circle cx="125.66999999999999"  cy="-9.149999999999977" r="5" stroke="#000000"  stroke-width="1" fill="#000000"/>
<circle cx="91.625"  cy="81.92500000000004" r="5" stroke="#000000"  stroke-width="1" fill="#000000"/>
<circle cx="111.61500000000001"  cy="80.00000000000003" r="5" stroke="#000000"  stroke-width="1" fill="#000000"/>
<circle cx="72.53"  cy="39.08000000000001" r="5" stroke="#000000"  stroke-width="1" fill="#000000"/>
<circle cx="85.025"  cy="57.130000000000024" r="5" stroke="#000000"  stroke-width="1" fill="#000000"/>
<circle cx="71.41999999999999"  cy="-19.20999999999998" r="5" stroke="#000000"  stroke-width="1" fill="#000000"/>
<circle cx="83.47"  cy="39.73000000000002" r="5" stroke="#000000"  stroke-width="1" fill="#000000"/>
<circle cx="110.875"  cy="-7.405000000000001" r="5" stroke="#000000"  stroke-width="1" fill="#000000"/>
<circle cx="125.53999999999999"  cy="37.17500000000001" r="5" stroke="#000000"  stroke-width="1" fill="#000000"/>
<circle cx="113.13499999999999"  cy="48.59" r="5" stroke="#000000"  stroke-width="1" fill="#000000"/>
<circle cx="82.21000000000001"  cy="-10.004999999999995" r="5" stroke="#000000"  stroke-width="1" fill="#000000"/>
<circle cx="133.34"  cy="16.24000000000001" r="5" stroke="#000000"  stroke-width="1" fill="#000000"/>
<circle cx="89.38499999999999"  cy="51.31000000000003" r="5" stroke="#000000"  stroke-width="1" fill="#000000"/>
<circle cx="102.52000000000001"  cy="50.930000000000035" r="5" stroke="#000000"  stroke-width="1" fill="#000000"/>
<circle cx="95.19"  cy="50.930000000000035" r="5" stroke="#000000"  stroke-width="1" fill="#000000"/>
<circle cx="112.57"  cy="42.30500000000001" r="5" stroke="#000000"  stroke-width="1" fill="#000000"/>
<circle cx="113.29499999999999"  cy="12.219999999999999" r="5" stroke="#000000"  stroke-width="1" fill="#000000"/>
<circle cx="59.74000000000001"  cy="28.495000000000005" r="5" stroke="#000000"  stroke-width="1" fill="#000000"/>
<circle cx="54.07499999999999"  cy="22.140000000000015" r="5" stroke="#000000"  stroke-width="1" fill="#000000"/>
<circle cx="125.85999999999999"  cy="55.34" r="5" stroke="#000000"  stroke-width="1" fill="#000000"/>
<circle cx="107.54499999999999"  cy="21.53" r="5" stroke="#000000"  stroke-width="1" fill="#000000"/>
<circle cx="105.975"  cy="44.88499999999999" r="5" stroke="#000000"  stroke-width="1" fill="#000000"/>
<circle cx="84.13999999999999"  cy="30.379999999999995" r="5" stroke="#000000"  stroke-width="1" fill="#000000"/>
<circle cx="100.29499999999999"  cy="-15.224999999999994" r="5" stroke="#000000"  stroke-width="1" fill="#000000"/>
<circle cx="112.79999999999998"  cy="56.73500000000004" r="5" stroke="#000000"  stroke-width="1" fill="#000000"/>
<circle cx="113.345"  cy="18.585000000000008" r="5" stroke="#000000"  stroke-width="1" fill="#000000"/>
<circle cx="63.004999999999995"  cy="-9.539999999999992" r="5" stroke="#000000"  stroke-width="1" fill="#000000"/>
<circle cx="108.13499999999999"  cy="34.890000000000015" r="5" stroke="#000000"  stroke-width="1" fill="#000000"/>
<circle cx="121.18"  cy="22.130000000000024" r="5" stroke="#000000"  stroke-width="1" fill="#000000"/>
<circle cx="65.58500000000001"  cy="13.844999999999999" r="5" stroke="#000000"  stroke-width="1" fill="#000000"/>
<circle cx="98.66499999999999"  cy="56.73500000000004" r="5" stroke="#000000"  stroke-width="1" fill="#000000"/>
<circle cx="66.06"  cy="26.980000000000018" r="5" stroke="#000000"  stroke-width="1" fill="#000000"/>
<circle cx="98.22999999999999"  cy="62.535" r="5" stroke="#000000"  stroke-width="1" fill="#000000"/>
<circle cx="98.87"  cy="-21.16000000000001" r="5" stroke="#000000"  stroke-width="1" fill="#000000"/>
<circle cx="83.10499999999999"  cy="18.765000000000015" r="5" stroke="#000000"  stroke-width="1" fill="#000000"/>
<circle cx="105.875"  cy="56.73500000000004" r="5" stroke="#000000"  stroke-width="1" fill="#000000"/>
<circle cx="106.805"  cy="7.240000000000009" r="5" stroke="#000000"  stroke-width="1" fill="#000000"/>
<circle cx="119.14500000000001"  cy="15.5" r="5" stroke="#000000"  stroke-width="1" fill="#000000"/>
<circle cx="106.31"  cy="1.4050000000000011" r="5" stroke="#000000"  stroke-width="1" fill="#000000"/>
<circle cx="101.65"  cy="18.72" r="5" stroke="#000000"  stroke-width="1" fill="#000000"/>
<circle cx="82.995"  cy="12.900000000000006" r="5" stroke="#000000"  stroke-width="1" fill="#000000"/>
<circle cx="94.04499999999999"  cy="6.090000000000003" r="5" stroke="#000000"  stroke-width="1" fill="#000000"/>
<circle cx="141.605"  cy="29.795000000000016" r="5" stroke="#000000"  stroke-width="1" fill="#000000"/>
<circle cx="70.47"  cy="-7.310000000000002" r="5" stroke="#000000"  stroke-width="1" fill="#000000"/>
<circle cx="90.945"  cy="57.13500000000002" r="5" stroke="#000000"  stroke-width="1" fill="#000000"/>
<circle cx="88.24000000000001"  cy="7.094999999999999" r="5" stroke="#000000"  stroke-width="1" fill="#000000"/>
<circle cx="121.94999999999999"  cy="9.695000000000022" r="5" stroke="#000000"  stroke-width="1" fill="#000000"/>
<circle cx="97.595"  cy="-5.819999999999993" r="5" stroke="#000000"  stroke-width="1" fill="#000000"/>
<circle cx="82.11500000000001"  cy="-3.3899999999999864" r="5" stroke="#000000"  stroke-width="1" fill="#000000"/>
<circle cx="69.775"  cy="49.565000000000026" r="5" stroke="#000000"  stroke-width="1" fill="#000000"/>
<circle cx="102.32999999999998"  cy="33.13499999999999" r="5" stroke="#000000"  stroke-width="1" fill="#000000"/>
<circle cx="81.435"  cy="4.825000000000017" r="5" stroke="#000000"  stroke-width="1" fill="#000000"/>
<circle cx="88.905"  cy="15.160000000000025" r="5" stroke="#000000"  stroke-width="1" fill="#000000"/>
<circle cx="56.66499999999999"  cy="15.195000000000022" r="5" stroke="#000000"  stroke-width="1" fill="#000000"/>
<circle cx="99.25999999999999"  cy="45.129999999999995" r="5" stroke="#000000"  stroke-width="1" fill="#000000"/>
<circle cx="91.75"  cy="0.25" r="5" stroke="#000000"  stroke-width="1" fill="#000000"/>
<circle cx="3.655000000000001"  cy="40.02000000000001" r="5" stroke="#000000"  stroke-width="1" fill="#000000"/>
<circle cx="-3.6450000000000102"  cy="72.75000000000003" r="5" stroke="#000000"  stroke-width="1" fill="#000000"/>
<circle cx="11.35499999999999"  cy="22.75" r="5" stroke="#000000"  stroke-width="1" fill="#000000"/>
<circle cx="-25.079999999999984"  cy="53.49000000000004" r="5" stroke="#000000"  stroke-width="1" fill="#000000"/>
<circle cx="17.345"  cy="64.33000000000001" r="5" stroke="#000000"  stroke-width="1" fill="#000000"/>
<circle cx="-7.635000000000019"  cy="30.694999999999993" r="5" stroke="#000000"  stroke-width="1" fill="#000000"/>
<circle cx="56.639999999999986"  cy="63.98500000000004" r="5" stroke="#000000"  stroke-width="1" fill="#000000"/>
<circle cx="17.159999999999997"  cy="27.465000000000003" r="5" stroke="#000000"  stroke-width="1" fill="#000000"/>
<circle cx="48.285"  cy="89.69000000000003" r="5" stroke="#000000"  stroke-width="1" fill="#000000"/>
<circle cx="19.794999999999987"  cy="71.63500000000002" r="5" stroke="#000000"  stroke-width="1" fill="#000000"/>
<circle cx="-35.41"  cy="55.25000000000003" r="5" stroke="#000000"  stroke-width="1" fill="#000000"/>
<circle cx="26.585000000000008"  cy="19.78" r="5" stroke="#000000"  stroke-width="1" fill="#000000"/>
<circle cx="11.359999999999985"  cy="29.085000000000008" r="5" stroke="#000000"  stroke-width="1" fill="#000000"/>
<circle cx="41.785"  cy="31.215000000000003" r="5" stroke="#000000"  stroke-width="1" fill="#000000"/>
<circle cx="9.875"  cy="40.02000000000001" r="5" stroke="#000000"  stroke-width="1" fill="#000000"/>
<circle cx="33.34"  cy="77.53999999999999" r="5" stroke="#000000"  stroke-width="1" fill="#000000"/>
<circle cx="15.870000000000005"  cy="34.89500000000001" r="5" stroke="#000000"  stroke-width="1" fill="#000000"/>
<circle cx="34.599999999999994"  cy="23.36500000000001" r="5" stroke="#000000"  stroke-width="1" fill="#000000"/>
<circle cx="57.764999999999986"  cy="108.14000000000001" r="5" stroke="#000000"  stroke-width="1" fill="#000000"/>
<circle cx="52.125"  cy="79.975" r="5" stroke="#000000"  stroke-width="1" fill="#000000"/>
<circle cx="37.07499999999999"  cy="56.83000000000001" r="5" stroke="#000000"  stroke-width="1" fill="#000000"/>
<circle cx="-1.2600000000000193"  cy="45.93000000000001" r="5" stroke="#000000"  stroke-width="1" fill="#000000"/>
<circle cx="39.49000000000001"  cy="69.70500000000001" r="5" stroke="#000000"  stroke-width="1" fill="#000000"/>
<circle cx="35.454999999999984"  cy="37.88499999999999" r="5" stroke="#000000"  stroke-width="1" fill="#000000"/>
<circle cx="37.19999999999999"  cy="51.03" r="5" stroke="#000000"  stroke-width="1" fill="#000000"/>
<circle cx="48.44999999999999"  cy="67.525" r="5" stroke="#000000"  stroke-width="1" fill="#000000"/>
<circle cx="16.555000000000007"  cy="49.25" r="5" stroke="#000000"  stroke-width="1" fill="#000000"/>
<circle cx="22.47"  cy="43.545000000000016" r="5" stroke="#000000"  stroke-width="1" fill="#000000"/>
<circle cx="51.715"  cy="47.849999999999994" r="5" stroke="#000000"  stroke-width="1" fill="#000000"/>
<circle cx="30.590000000000003"  cy="55.775000000000006" r="5" stroke="#000000"  stroke-width="1" fill="#000000"/>
<circle cx="11.094999999999999"  cy="57.42500000000004" r="5" stroke="#000000"  stroke-width="1" fill="#000000"/>
<circle cx="38.224999999999994"  cy="62.63500000000002" r="5" stroke="#000000"  stroke-width="1" fill="#000000"/>
<circle cx="24.319999999999993"  cy="59.99500000000003" r="5" stroke="#000000"  stroke-width="1" fill="#000000"/>
<circle cx="40.109999999999985"  cy="44.93000000000001" r="5" stroke="#000000"  stroke-width="1" fill="#000000"/>
<circle cx="32.41499999999999"  cy="63.805000000000035" r="5" stroke="#000000"  stroke-width="1" fill="#000000"/>
<circle cx="44.04499999999999"  cy="61.724999999999994" r="5" stroke="#000000"  stroke-width="1" fill="#000000"/>
<circle cx="34.30500000000001"  cy="45.224999999999994" r="5" stroke="#000000"  stroke-width="1" fill="#000000"/>
<circle cx="4.554999999999978"  cy="45.81999999999999" r="5" stroke="#000000"  stroke-width="1" fill="#000000"/>
<circle cx="22.69999999999999"  cy="54.180000000000035" r="5" stroke="#000000"  stroke-width="1" fill="#000000"/>
<circle cx="21.814999999999998"  cy="37.045000000000016" r="5" stroke="#000000"  stroke-width="1" fill="#000000"/>
<circle cx="5.554999999999978"  cy="28.36500000000001" r="5" stroke="#000000"  stroke-width="1" fill="#000000"/>
<circle cx="48.07499999999999"  cy="37.41" r="5" stroke="#000000"  stroke-width="1" fill="#000000"/>
<circle cx="45.91"  cy="43.985000000000014" r="5" stroke="#000000"  stroke-width="1" fill="#000000"/>
<circle cx="20.10499999999999"  cy="21.660000000000025" r="5" stroke="#000000"  stroke-width="1" fill="#000000"/>
<circle cx="29.329999999999984"  cy="39.42500000000001" r="5" stroke="#000000"  stroke-width="1" fill="#000000"/>
<circle cx="35.69999999999999"  cy="32.00999999999999" r="5" stroke="#000000"  stroke-width="1" fill="#000000"/>
<circle cx="43.0"  cy="55.920000000000044" r="5" stroke="#000000"  stroke-width="1" fill="#000000"/>
<circle cx="82.345"  cy="82.28" r="5" stroke="#000000"  stroke-width="1" fill="#000000"/>
<circle cx="82.49000000000001"  cy="70.55500000000004" r="5" stroke="#000000"  stroke-width="1" fill="#000000"/>
<circle cx="90.69"  cy="111.00000000000003" r="5" stroke="#000000"  stroke-width="1" fill="#000000"/>
<circle cx="95.82999999999998"  cy="94.51500000000001" r="5" stroke="#000000"  stroke-width="1" fill="#000000"/>
<circle cx="114.91"  cy="111.49000000000004" r="5" stroke="#000000"  stroke-width="1" fill="#000000"/>
<circle cx="69.35999999999999"  cy="-25.155" r="5" stroke="#000000"  stroke-width="1" fill="#000000"/>
<circle cx="63.69499999999999"  cy="-31.05499999999998" r="5" stroke="#000000"  stroke-width="1" fill="#000000"/>
<circle cx="137.145"  cy="41.92500000000001" r="5" stroke="#000000"  stroke-width="1" fill="#000000"/>
<circle cx="148.04"  cy="12.525000000000006" r="5" stroke="#000000"  stroke-width="1" fill="#000000"/>
<circle cx="141.80499999999998"  cy="3.219999999999999" r="5" stroke="#000000"  stroke-width="1" fill="#000000"/>
<circle cx="153.86499999999992"  cy="-0.8049999999999784" r="5" stroke="#000000"  stroke-width="1" fill="#000000"/>
<circle cx="145.73499999999999"  cy="65.48000000000005" r="5" stroke="#000000"  stroke-width="1" fill="#000000"/>
<circle cx="99.642"  cy="-16.07419999999999" r="5" stroke="#000000"  stroke-width="1" fill="#000000"/>
<circle cx="115.87"  cy="-19.05499999999998" r="5" stroke="#000000"  stroke-width="1" fill="#000000"/>
<circle cx="118.54999999999998"  cy="-25.419999999999987" r="5" stroke="#000000"  stroke-width="1" fill="#000000"/>
<circle cx="109.82499999999999"  cy="-27.129999999999967" r="5" stroke="#000000"  stroke-width="1" fill="#000000"/>
<circle cx="100.0058"  cy="-15.540999999999997" r="5" stroke="#000000"  stroke-width="1" fill="#000000"/>
<circle cx="114.975"  cy="-33.014999999999986" r="5" stroke="#000000"  stroke-width="1" fill="#000000"/>
<circle cx="104.58500000000001"  cy="-32.93999999999997" r="5" stroke="#000000"  stroke-width="1" fill="#000000"/>
<circle cx="50.18000000000001"  cy="-20.224999999999994" r="5" stroke="#000000"  stroke-width="1" fill="#000000"/>
<circle cx="97.44999999999999"  cy="-45.98999999999998" r="5" stroke="#000000"  stroke-width="1" fill="#000000"/>
<circle cx="-13.200000000000017"  cy="43.400000000000006" r="5" stroke="#000000"  stroke-width="1" fill="#000000"/>
<circle cx="-28.88299999999998"  cy="51.91900000000001" r="5" stroke="#000000"  stroke-width="1" fill="#000000"/>
<circle cx="-23.870000000000005"  cy="50.20100000000002" r="5" stroke="#000000"  stroke-width="1" fill="#000000"/>
<circle cx="-26.942999999999984"  cy="50.36100000000002" r="5" stroke="#000000"  stroke-width="1" fill="#000000"/>
<circle cx="-31.147999999999996"  cy="52.91900000000004" r="5" stroke="#000000"  stroke-width="1" fill="#000000"/>
<circle cx="-26.053799999999995"  cy="54.02740000000003" r="5" stroke="#000000"  stroke-width="1" fill="#000000"/>
<circle cx="-25.698199999999986"  cy="54.18660000000003" r="5" stroke="#000000"  stroke-width="1" fill="#000000"/>
<circle cx="-30.079000000000008"  cy="54.19100000000003" r="5" stroke="#000000"  stroke-width="1" fill="#000000"/>
<circle cx="-19.19500000000002"  cy="49.08000000000001" r="5" stroke="#000000"  stroke-width="1" fill="#000000"/>
<circle cx="-28.852000000000004"  cy="53.84300000000002" r="5" stroke="#000000"  stroke-width="1" fill="#000000"/>
<circle cx="-25.847799999999978"  cy="53.79520000000005" r="5" stroke="#000000"  stroke-width="1" fill="#000000"/>
<circle cx="-25.38579999999999"  cy="54.14380000000003" r="5" stroke="#000000"  stroke-width="1" fill="#000000"/>
<circle cx="20.311999999999983"  cy="65.39200000000002" r="5" stroke="#000000"  stroke-width="1" fill="#000000"/>
<circle cx="-36.005000000000024"  cy="21.450000000000017" r="5" stroke="#000000"  stroke-width="1" fill="#000000"/>
<circle cx="67.60999999999999"  cy="67.72" r="5" stroke="#000000"  stroke-width="1" fill="#000000"/>
<circle cx="48.76399999999998"  cy="90.18440000000001" r="5" stroke="#000000"  stroke-width="1" fill="#000000"/>
<circle cx="48.5582"  cy="89.85920000000002" r="5" stroke="#000000"  stroke-width="1" fill="#000000"/>
<circle cx="-72.945"  cy="61.03999999999999" r="5" stroke="#000000"  stroke-width="1" fill="#000000"/>
<circle cx="49.08500000000001"  cy="127.15" r="5" stroke="#000000"  stroke-width="1" fill="#000000"/>
<circle cx="63.215"  cy="131.32500000000002" r="5" stroke="#000000"  stroke-width="1" fill="#000000"/>
<circle cx="62.06999999999999"  cy="125.45500000000001" r="5" stroke="#000000"  stroke-width="1" fill="#000000"/>
<circle cx="54.889999999999986"  cy="132.665" r="5" stroke="#000000"  stroke-width="1" fill="#000000"/>
<circle cx="63.91"  cy="119.46000000000001" r="5" stroke="#000000"  stroke-width="1" fill="#000000"/>
<circle cx="50.79499999999999"  cy="120.64500000000001" r="5" stroke="#000000"  stroke-width="1" fill="#000000"/>
<circle cx="55.35499999999999"  cy="126.465" r="5" stroke="#000000"  stroke-width="1" fill="#000000"/>
<circle cx="57.514999999999986"  cy="50.06000000000003" r="5" stroke="#000000"  stroke-width="1" fill="#000000"/>
<circle cx="-33.245000000000005"  cy="-75.74749999999997" r="5" stroke="#000000"  stroke-width="1" fill="#000000"/>
<circle cx="-34.07000000000002"  cy="-56.80549999999997" r="5" stroke="#000000"  stroke-width="1" fill="#000000"/>
<circle cx="-40.984999999999985"  cy="-82.28349999999998" r="5" stroke="#000000"  stroke-width="1" fill="#000000"/>
<circle cx="-33.97999999999999"  cy="-69.941" r="5" stroke="#000000"  stroke-width="1" fill="#000000"/>
<circle cx="-19.330000000000013"  cy="-65.52099999999999" r="5" stroke="#000000"  stroke-width="1" fill="#000000"/>
<circle cx="-33.27000000000001"  cy="-13.36499999999998" r="5" stroke="#000000"  stroke-width="1" fill="#000000"/>
<circle cx="-42.150000000000006"  cy="-68.60499999999999" r="5" stroke="#000000"  stroke-width="1" fill="#000000"/>
<circle cx="-57.42499999999998"  cy="-58.27449999999996" r="5" stroke="#000000"  stroke-width="1" fill="#000000"/>
<circle cx="-18.784999999999997"  cy="-71.32399999999998" r="5" stroke="#000000"  stroke-width="1" fill="#000000"/>
<circle cx="-54.275000000000006"  cy="-52.474999999999994" r="5" stroke="#000000"  stroke-width="1" fill="#000000"/>
<circle cx="-45.68000000000001"  cy="-58.436499999999995" r="5" stroke="#000000"  stroke-width="1" fill="#000000"/>
<circle cx="-41.34"  cy="-88.424" r="5" stroke="#000000"  stroke-width="1" fill="#000000"/>
<circle cx="-1.115000000000009"  cy="-33.214999999999975" r="5" stroke="#000000"  stroke-width="1" fill="#000000"/>
<circle cx="-73.22749999999999"  cy="-59.958999999999975" r="5" stroke="#000000"  stroke-width="1" fill="#000000"/>
<circle cx="0.07500000000001705"  cy="-83.67999999999998" r="5" stroke="#000000"  stroke-width="1" fill="#000000"/>
<circle cx="82.965"  cy="-66.1745" r="5" stroke="#000000"  stroke-width="1" fill="#000000"/>
<circle cx="114.47999999999999"  cy="-40.02000000000001" r="5" stroke="#000000"  stroke-width="1" fill="#000000"/>
<circle cx="101.57999999999998"  cy="-75.47299999999998" r="5" stroke="#000000"  stroke-width="1" fill="#000000"/>
<circle cx="91.09"  cy="-42.78999999999999" r="5" stroke="#000000"  stroke-width="1" fill="#000000"/>
<circle cx="86.375"  cy="-54.460999999999984" r="5" stroke="#000000"  stroke-width="1" fill="#000000"/>
<circle cx="104.32999999999998"  cy="-44.609999999999985" r="5" stroke="#000000"  stroke-width="1" fill="#000000"/>
<circle cx="91.63999999999999"  cy="-48.60499999999999" r="5" stroke="#000000"  stroke-width="1" fill="#000000"/>
<circle cx="-37.57400000000001"  cy="39.59200000000001" r="5" stroke="#000000"  stroke-width="1" fill="#000000"/>
<circle cx="-37.40300000000002"  cy="33.667" r="5" stroke="#000000"  stroke-width="1" fill="#000000"/>
<circle cx="-31.463000000000022"  cy="39.349999999999994" r="5" stroke="#000000"  stroke-width="1" fill="#000000"/>
<circle cx="-32.781000000000034"  cy="39.265000000000015" r="5" stroke="#000000"  stroke-width="1" fill="#000000"/>
<circle cx="-40.86100000000002"  cy="36.31800000000001" r="5" stroke="#000000"  stroke-width="1" fill="#000000"/>
<circle cx="-34.797000000000025"  cy="36.09800000000001" r="5" stroke="#000000"  stroke-width="1" fill="#000000"/>
<circle cx="-39.460000000000036"  cy="37.32500000000002" r="5" stroke="#000000"  stroke-width="1" fill="#000000"/>
<circle cx="-40.62700000000004"  cy="38.33600000000001" r="5" stroke="#000000"  stroke-width="1" fill="#000000"/>
<circle cx="-39.82800000000003"  cy="32.899000000000015" r="5" stroke="#000000"  stroke-width="1" fill="#000000"/>
<circle cx="-36.390000000000015"  cy="38.88300000000001" r="5" stroke="#000000"  stroke-width="1" fill="#000000"/>
<circle cx="-38.110000000000014"  cy="38.42300000000003" r="5" stroke="#000000"  stroke-width="1" fill="#000000"/>
<circle cx="-38.565000000000026"  cy="34.36300000000003" r="5" stroke="#000000"  stroke-width="1" fill="#000000"/>
<circle cx="-39.70000000000002"  cy="35.53999999999999" r="5" stroke="#000000"  stroke-width="1" fill="#000000"/>
<circle cx="-36.23900000000003"  cy="34.15299999999999" r="5" stroke="#000000"  stroke-width="1" fill="#000000"/>
<circle cx="-37.43700000000001"  cy="37.253000000000014" r="5" stroke="#000000"  stroke-width="1" fill="#000000"/>
<circle cx="120.285"  cy="-43.66499999999999" r="5" stroke="#000000"  stroke-width="1" fill="#000000"/>
<circle cx="125.09"  cy="-37.85499999999999" r="5" stroke="#000000"  stroke-width="1" fill="#000000"/>
<circle cx="-29.939999999999998"  cy="-26.95999999999998" r="5" stroke="#000000"  stroke-width="1" fill="#000000"/>
<circle cx="9.909999999999997"  cy="-46.49999999999997" r="5" stroke="#000000"  stroke-width="1" fill="#000000"/>
<circle cx="22.345"  cy="-31.30499999999998" r="5" stroke="#000000"  stroke-width="1" fill="#000000"/>
<circle cx="23.13499999999999"  cy="-40.734999999999985" r="5" stroke="#000000"  stroke-width="1" fill="#000000"/>
<circle cx="24.814999999999998"  cy="-19.694999999999965" r="5" stroke="#000000"  stroke-width="1" fill="#000000"/>
<circle cx="11.359999999999985"  cy="-40.345" r="5" stroke="#000000"  stroke-width="1" fill="#000000"/>
<circle cx="29.164999999999992"  cy="-33.41" r="5" stroke="#000000"  stroke-width="1" fill="#000000"/>
<circle cx="-17.715000000000003"  cy="-15.685000000000002" r="5" stroke="#000000"  stroke-width="1" fill="#000000"/>
<circle cx="-29.590000000000003"  cy="-32.785" r="5" stroke="#000000"  stroke-width="1" fill="#000000"/>
<circle cx="-8.655000000000001"  cy="-44.83000000000001" r="5" stroke="#000000"  stroke-width="1" fill="#000000"/>
<circle cx="-7.560000000000002"  cy="-50.62999999999997" r="5" stroke="#000000"  stroke-width="1" fill="#000000"/>
<circle cx="-11.685000000000002"  cy="-39.02000000000001" r="5" stroke="#000000"  stroke-width="1" fill="#000000"/>
<circle cx="17.88499999999999"  cy="-51.94999999999996" r="5" stroke="#000000"  stroke-width="1" fill="#000000"/>
<circle cx="3.835000000000008"  cy="-13.074999999999989" r="5" stroke="#000000"  stroke-width="1" fill="#000000"/>
<circle cx="9.859999999999985"  cy="-7.234999999999985" r="5" stroke="#000000"  stroke-width="1" fill="#000000"/>
<circle cx="19.00999999999999"  cy="-18.94999999999996" r="5" stroke="#000000"  stroke-width="1" fill="#000000"/>
<circle cx="-3.6450000000000102"  cy="-21.605000000000004" r="5" stroke="#000000"  stroke-width="1" fill="#000000"/>
<circle cx="-23.625"  cy="-27.289999999999992" r="5" stroke="#000000"  stroke-width="1" fill="#000000"/>
<circle cx="-6.030000000000001"  cy="-15.804999999999978" r="5" stroke="#000000"  stroke-width="1" fill="#000000"/>
<circle cx="-21.215000000000003"  cy="-33.095" r="5" stroke="#000000"  stroke-width="1" fill="#000000"/>
<circle cx="-12.080000000000013"  cy="-21.485" r="5" stroke="#000000"  stroke-width="1" fill="#000000"/>
<circle cx="-18.14500000000001"  cy="-38.89500000000001" r="5" stroke="#000000"  stroke-width="1" fill="#000000"/>
<circle cx="10.22999999999999"  cy="-26.419999999999987" r="5" stroke="#000000"  stroke-width="1" fill="#000000"/>
<circle cx="-9.255000000000024"  cy="-56.43100000000001" r="5" stroke="#000000"  stroke-width="1" fill="#000000"/>
<circle cx="10.264999999999986"  cy="-16.744999999999976" r="5" stroke="#000000"  stroke-width="1" fill="#000000"/>
<circle cx="10.490000000000009"  cy="-34.54499999999999" r="5" stroke="#000000"  stroke-width="1" fill="#000000"/>
<circle cx="-14.460000000000008"  cy="-48.650000000000006" r="5" stroke="#000000"  stroke-width="1" fill="#000000"/>
<circle cx="-26.085000000000008"  cy="-44.599999999999994" r="5" stroke="#000000"  stroke-width="1" fill="#000000"/>
<circle cx="27.569999999999993"  cy="-25.504999999999967" r="5" stroke="#000000"  stroke-width="1" fill="#000000"/>
<circle cx="-22.525000000000006"  cy="-21.489999999999995" r="5" stroke="#000000"  stroke-width="1" fill="#000000"/>
<circle cx="-17.414999999999992"  cy="-7.574999999999989" r="5" stroke="#000000"  stroke-width="1" fill="#000000"/>
<circle cx="26.900000000000006"  cy="-61.54400000000001" r="5" stroke="#000000"  stroke-width="1" fill="#000000"/>
<circle cx="17.710000000000008"  cy="4.255000000000024" r="5" stroke="#000000"  stroke-width="1" fill="#000000"/>
<circle cx="9.697599999999985"  cy="-6.782999999999986" r="5" stroke="#000000"  stroke-width="1" fill="#000000"/>
<circle cx="121.26499999999999"  cy="111.975" r="5" stroke="#000000"  stroke-width="1" fill="#000000"/>
<circle cx="117.346"  cy="109.15100000000004" r="5" stroke="#000000"  stroke-width="1" fill="#000000"/>
<circle cx="113.35999999999999"  cy="94.28999999999999" r="5" stroke="#000000"  stroke-width="1" fill="#000000"/>
<circle cx="120.275"  cy="94.13000000000002" r="5" stroke="#000000"  stroke-width="1" fill="#000000"/>
<circle cx="102.38499999999999"  cy="117.80500000000004" r="5" stroke="#000000"  stroke-width="1" fill="#000000"/>
<circle cx="102.07"  cy="123.71000000000001" r="5" stroke="#000000"  stroke-width="1" fill="#000000"/>
<circle cx="104.71000000000001"  cy="107.97" r="5" stroke="#000000"  stroke-width="1" fill="#000000"/>
<circle cx="109.695"  cy="101.845" r="5" stroke="#000000"  stroke-width="1" fill="#000000"/>
<circle cx="148.74499999999995"  cy="46.129999999999995" r="5" stroke="#000000"  stroke-width="1" fill="#000000"/>
<circle cx="139.91"  cy="49.96000000000001" r="5" stroke="#000000"  stroke-width="1" fill="#000000"/>
<circle cx="141.32500000000002"  cy="71.28" r="5" stroke="#000000"  stroke-width="1" fill="#000000"/>
<circle cx="142.15"  cy="79.58500000000001" r="5" stroke="#000000"  stroke-width="1" fill="#000000"/>
<circle cx="148.36999999999995"  cy="71.61000000000004" r="5" stroke="#000000"  stroke-width="1" fill="#000000"/>
<circle cx="164.27"  cy="56.155" r="5" stroke="#000000"  stroke-width="1" fill="#000000"/>
<circle cx="165.38000000000002"  cy="66.81500000000003" r="5" stroke="#000000"  stroke-width="1" fill="#000000"/>
<circle cx="145.77"  cy="51.93500000000003" r="5" stroke="#000000"  stroke-width="1" fill="#000000"/>
<circle cx="45.19499999999999"  cy="-27.81499999999997" r="5" stroke="#000000"  stroke-width="1" fill="#000000"/>
<circle cx="39.05500000000001"  cy="-78.535" r="5" stroke="#000000"  stroke-width="1" fill="#000000"/>
<circle cx="44.86500000000001"  cy="-83.49499999999998" r="5" stroke="#000000"  stroke-width="1" fill="#000000"/>
<circle cx="37.954999999999984"  cy="-85.874" r="5" stroke="#000000"  stroke-width="1" fill="#000000"/>
<circle cx="39.43820000000002"  cy="-79.34502" r="5" stroke="#000000"  stroke-width="1" fill="#000000"/>
<circle cx="42.245000000000005"  cy="-63.46950000000001" r="5" stroke="#000000"  stroke-width="1" fill="#000000"/>
<circle cx="26.72999999999999"  cy="-69.79749999999999" r="5" stroke="#000000"  stroke-width="1" fill="#000000"/>
<circle cx="15.215000000000003"  cy="-67.99449999999999" r="5" stroke="#000000"  stroke-width="1" fill="#000000"/>
<circle cx="35.66"  cy="-58.54400000000001" r="5" stroke="#000000"  stroke-width="1" fill="#000000"/>
<circle cx="20.924999999999983"  cy="-57.75399999999999" r="5" stroke="#000000"  stroke-width="1" fill="#000000"/>
<circle cx="19.150999999999982"  cy="66.53200000000001" r="5" stroke="#000000"  stroke-width="1" fill="#000000"/>
<circle cx="57.91999999999999"  cy="-62.297" r="5" stroke="#000000"  stroke-width="1" fill="#000000"/>
<circle cx="69.525"  cy="-67.3835" r="5" stroke="#000000"  stroke-width="1" fill="#000000"/>
<circle cx="51.215"  cy="-64.51249999999996" r="5" stroke="#000000"  stroke-width="1" fill="#000000"/>
<circle cx="64.81"  cy="-44.16999999999999" r="5" stroke="#000000"  stroke-width="1" fill="#000000"/>
<circle cx="75.29499999999999"  cy="-55.382499999999965" r="5" stroke="#000000"  stroke-width="1" fill="#000000"/>
<circle cx="-84.555"  cy="51.98500000000004" r="5" stroke="#000000"  stroke-width="1" fill="#000000"/>
<circle cx="-78.75649999999999"  cy="62.28" r="5" stroke="#000000"  stroke-width="1" fill="#000000"/>
<circle cx="-70.07"  cy="42.09" r="5" stroke="#000000"  stroke-width="1" fill="#000000"/>
<circle cx="-81.674"  cy="34.92500000000001" r="5" stroke="#000000"  stroke-width="1" fill="#000000"/>
<circle cx="-82.07650000000001"  cy="68.11500000000004" r="5" stroke="#000000"  stroke-width="1" fill="#000000"/>
<circle cx="-67.60499999999999"  cy="82.11500000000004" r="5" stroke="#000000"  stroke-width="1" fill="#000000"/>
<circle cx="-87.87950000000001"  cy="64.98000000000005" r="5" stroke="#000000"  stroke-width="1" fill="#000000"/>
<circle cx="-76.201"  cy="73.97" r="5" stroke="#000000"  stroke-width="1" fill="#000000"/>
<circle cx="-84.62550000000002"  cy="59.130000000000024" r="5" stroke="#000000"  stroke-width="1" fill="#000000"/>
<circle cx="-72.94900000000001"  cy="52.565000000000026" r="5" stroke="#000000"  stroke-width="1" fill="#000000"/>
<circle cx="-96.95349999999999"  cy="17.435000000000002" r="5" stroke="#000000"  stroke-width="1" fill="#000000"/>
<circle cx="-99.08500000000001"  cy="34.58000000000001" r="5" stroke="#000000"  stroke-width="1" fill="#000000"/>
<circle cx="-93.2815"  cy="35.32500000000002" r="5" stroke="#000000"  stroke-width="1" fill="#000000"/>
<circle cx="-89.82"  cy="80.215" r="5" stroke="#000000"  stroke-width="1" fill="#000000"/>
<circle cx="-26.79200000000003"  cy="35.15299999999999" r="5" stroke="#000000"  stroke-width="1" fill="#000000"/>
<circle cx="-23.630000000000024"  cy="40.974999999999994" r="5" stroke="#000000"  stroke-width="1" fill="#000000"/>
<circle cx="-30.26200000000003"  cy="37.87000000000003" r="5" stroke="#000000"  stroke-width="1" fill="#000000"/>
<circle cx="-24.79000000000002"  cy="40.58200000000002" r="5" stroke="#000000"  stroke-width="1" fill="#000000"/>
<circle cx="-26.936000000000035"  cy="36.31399999999999" r="5" stroke="#000000"  stroke-width="1" fill="#000000"/>
<circle cx="-33.01600000000002"  cy="42.97900000000001" r="5" stroke="#000000"  stroke-width="1" fill="#000000"/>
<circle cx="-14.515000000000015"  cy="13.710000000000008" r="5" stroke="#000000"  stroke-width="1" fill="#000000"/>
<circle cx="-30.19500000000002"  cy="26.24000000000001" r="5" stroke="#000000"  stroke-width="1" fill="#000000"/>
<circle cx="-13.439999999999998"  cy="25.689999999999998" r="5" stroke="#000000"  stroke-width="1" fill="#000000"/>
<circle cx="-19.255000000000024"  cy="25.325000000000017" r="5" stroke="#000000"  stroke-width="1" fill="#000000"/>
<circle cx="-18.590000000000003"  cy="7.905000000000001" r="5" stroke="#000000"  stroke-width="1" fill="#000000"/>
<circle cx="-60.610000000000014"  cy="21.605000000000018" r="5" stroke="#000000"  stroke-width="1" fill="#000000"/>
<circle cx="-36.43380000000002"  cy="20.886800000000022" r="5" stroke="#000000"  stroke-width="1" fill="#000000"/>
<circle cx="-59.21000000000001"  cy="14.430000000000007" r="5" stroke="#000000"  stroke-width="1" fill="#000000"/>
<circle cx="-19.380000000000024"  cy="31.235000000000014" r="5" stroke="#000000"  stroke-width="1" fill="#000000"/>
<circle cx="-25.19999999999999"  cy="9.840000000000003" r="5" stroke="#000000"  stroke-width="1" fill="#000000"/>
<circle cx="-34.79029600000001"  cy="36.11692000000002" r="5" stroke="#000000"  stroke-width="1" fill="#000000"/>
<circle cx="117.60999999999999"  cy="-61.109999999999985" r="5" stroke="#000000"  stroke-width="1" fill="#000000"/>
<circle cx="109.10999999999999"  cy="-59.934" r="5" stroke="#000000"  stroke-width="1" fill="#000000"/>
<circle cx="110.20899999999997"  cy="-61.538700000000006" r="5" stroke="#000000"  stroke-width="1" fill="#000000"/>
<circle cx="-0.3900000000000148"  cy="9.469999999999999" r="5" stroke="#000000"  stroke-width="1" fill="#000000"/>
<circle cx="-19.168000000000006"  cy="11.777000000000015" r="5" stroke="#000000"  stroke-width="1" fill="#000000"/>
<circle cx="-19.973000000000013"  cy="15.27900000000001" r="5" stroke="#000000"  stroke-width="1" fill="#000000"/>
<circle cx="-13.969999999999999"  cy="19.52000000000001" r="5" stroke="#000000"  stroke-width="1" fill="#000000"/>
<circle cx="-16.918000000000006"  cy="11.775000000000006" r="5" stroke="#000000"  stroke-width="1" fill="#000000"/>
<circle cx="0.0"  cy="0.0" r="5" stroke="#000000"  stroke-width="1" fill="#000000"/>
<circle cx="-67.85"  cy="5.564999999999998" r="5" stroke="#000000"  stroke-width="1" fill="#000000"/>
<circle cx="-22.283000000000015"  cy="11.239000000000004" r="5" stroke="#000000"  stroke-width="1" fill="#000000"/>
<circle cx="73.41499999999999"  cy="63.64500000000001" r="5" stroke="#000000"  stroke-width="1" fill="#000000"/>
<circle cx="-84.839"  cy="-12.85499999999999" r="5" stroke="#000000"  stroke-width="1" fill="#000000"/>
<circle cx="-78.2705"  cy="-12.019999999999982" r="5" stroke="#000000"  stroke-width="1" fill="#000000"/>
<circle cx="-72.44649999999999"  cy="-7.674999999999983" r="5" stroke="#000000"  stroke-width="1" fill="#000000"/>
<circle cx="-79.00450000000001"  cy="-18.514999999999986" r="5" stroke="#000000"  stroke-width="1" fill="#000000"/>
<circle cx="-72.793"  cy="-0.8949999999999818" r="5" stroke="#000000"  stroke-width="1" fill="#000000"/>
<circle cx="-84.53900000000002"  cy="98.63000000000002" r="5" stroke="#000000"  stroke-width="1" fill="#000000"/>
<circle cx="-78.3315"  cy="98.91" r="5" stroke="#000000"  stroke-width="1" fill="#000000"/>
<circle cx="-79.89150000000001"  cy="110.24500000000003" r="5" stroke="#000000"  stroke-width="1" fill="#000000"/>
<circle cx="-103.2295"  cy="59.17500000000004" r="5" stroke="#000000"  stroke-width="1" fill="#000000"/>
<circle cx="-109.73500000000004"  cy="50.474999999999994" r="5" stroke="#000000"  stroke-width="1" fill="#000000"/>
<circle cx="-109.15700000000001"  cy="75.01000000000002" r="5" stroke="#000000"  stroke-width="1" fill="#000000"/>
<circle cx="-100.3775"  cy="82.24000000000004" r="5" stroke="#000000"  stroke-width="1" fill="#000000"/>
<circle cx="-85.8175"  cy="86.035" r="5" stroke="#000000"  stroke-width="1" fill="#000000"/>
<circle cx="-90.6215"  cy="-56.68949999999998" r="5" stroke="#000000"  stroke-width="1" fill="#000000"/>
<circle cx="-101.47200000000001"  cy="-5.699999999999989" r="5" stroke="#000000"  stroke-width="1" fill="#000000"/>
<circle cx="-85.34900000000002"  cy="16.689999999999998" r="5" stroke="#000000"  stroke-width="1" fill="#000000"/>
<circle cx="-65.06"  cy="-0.6999999999999886" r="5" stroke="#000000"  stroke-width="1" fill="#000000"/>
<circle cx="-82.42350000000002"  cy="9.245000000000005" r="5" stroke="#000000"  stroke-width="1" fill="#000000"/>
<circle cx="-22.346000000000004"  cy="12.40100000000001" r="5" stroke="#000000"  stroke-width="1" fill="#000000"/>
<circle cx="-72.392"  cy="-24.694999999999965" r="5" stroke="#000000"  stroke-width="1" fill="#000000"/>
<circle cx="-78.20750000000001"  cy="-24.58499999999998" r="5" stroke="#000000"  stroke-width="1" fill="#000000"/>
<circle cx="6.35499999999999"  cy="-83.83949999999996" r="5" stroke="#000000"  stroke-width="1" fill="#000000"/>
<circle cx="-2.5349999999999966"  cy="-93.87099999999995" r="5" stroke="#000000"  stroke-width="1" fill="#000000"/>
 <line x1="90.04999999999998" y1="24.245000000000005" x2="28.5" y2="49.545000000000044" stroke="#000000" stroke-width="1" />
 <line x1="90.04999999999998" y1="24.245000000000005" x2="75.57499999999999" y2="44.879999999999995" stroke="#000000" stroke-width="1" />
 <line x1="90.04999999999998" y1="24.245000000000005" x2="125.66999999999999" y2="-9.149999999999977" stroke="#000000" stroke-width="1" />
 <line x1="90.04999999999998" y1="24.245000000000005" x2="91.625" y2="81.92500000000004" stroke="#000000" stroke-width="1" />
 <line x1="90.04999999999998" y1="24.245000000000005" x2="111.61500000000001" y2="80.00000000000003" stroke="#000000" stroke-width="1" />
 <line x1="90.04999999999998" y1="24.245000000000005" x2="72.53" y2="39.08000000000001" stroke="#000000" stroke-width="1" />
 <line x1="90.04999999999998" y1="24.245000000000005" x2="85.025" y2="57.130000000000024" stroke="#000000" stroke-width="1" />
 <line x1="90.04999999999998" y1="24.245000000000005" x2="71.41999999999999" y2="-19.20999999999998" stroke="#000000" stroke-width="1" />
 <line x1="90.04999999999998" y1="24.245000000000005" x2="83.47" y2="39.73000000000002" stroke="#000000" stroke-width="1" />
 <line x1="90.04999999999998" y1="24.245000000000005" x2="110.875" y2="-7.405000000000001" stroke="#000000" stroke-width="1" />
 <line x1="90.04999999999998" y1="24.245000000000005" x2="125.53999999999999" y2="37.17500000000001" stroke="#000000" stroke-width="1" />
 <line x1="90.04999999999998" y1="24.245000000000005" x2="113.13499999999999" y2="48.59" stroke="#000000" stroke-width="1" />
 <line x1="90.04999999999998" y1="24.245000000000005" x2="82.21000000000001" y2="-10.004999999999995" stroke="#000000" stroke-width="1" />
 <line x1="90.04999999999998" y1="24.245000000000005" x2="133.34" y2="16.24000000000001" stroke="#000000" stroke-width="1" />
 <line x1="90.04999999999998" y1="24.245000000000005" x2="89.38499999999999" y2="51.31000000000003" stroke="#000000" stroke-width="1" />
 <line x1="90.04999999999998" y1="24.245000000000005" x2="102.52000000000001" y2="50.930000000000035" stroke="#000000" stroke-width="1" />
 <line x1="90.04999999999998" y1="24.245000000000005" x2="95.19" y2="50.930000000000035" stroke="#000000" stroke-width="1" />
 <line x1="90.04999999999998" y1="24.245000000000005" x2="112.57" y2="42.30500000000001" stroke="#000000" stroke-width="1" />
 <line x1="90.04999999999998" y1="24.245000000000005" x2="113.29499999999999" y2="12.219999999999999" stroke="#000000" stroke-width="1" />
 <line x1="90.04999999999998" y1="24.245000000000005" x2="59.74000000000001" y2="28.495000000000005" stroke="#000000" stroke-width="1" />
 <line x1="90.04999999999998" y1="24.245000000000005" x2="54.07499999999999" y2="22.140000000000015" stroke="#000000" stroke-width="1" />
 <line x1="90.04999999999998" y1="24.245000000000005" x2="125.85999999999999" y2="55.34" stroke="#000000" stroke-width="1" />
 <line x1="90.04999999999998" y1="24.245000000000005" x2="107.54499999999999" y2="21.53" stroke="#000000" stroke-width="1" />
 <line x1="90.04999999999998" y1="24.245000000000005" x2="105.975" y2="44.88499999999999" stroke="#000000" stroke-width="1" />
 <line x1="90.04999999999998" y1="24.245000000000005" x2="84.13999999999999" y2="30.379999999999995" stroke="#000000" stroke-width="1" />
 <line x1="90.04999999999998" y1="24.245000000000005" x2="100.29499999999999" y2="-15.224999999999994" stroke="#000000" stroke-width="1" />
 <line x1="90.04999999999998" y1="24.245000000000005" x2="112.79999999999998" y2="56.73500000000004" stroke="#000000" stroke-width="1" />
 <line x1="90.04999999999998" y1="24.245000000000005" x2="113.345" y2="18.585000000000008" stroke="#000000" stroke-width="1" />
 <line x1="90.04999999999998" y1="24.245000000000005" x2="63.004999999999995" y2="-9.539999999999992" stroke="#000000" stroke-width="1" />
 <line x1="90.04999999999998" y1="24.245000000000005" x2="108.13499999999999" y2="34.890000000000015" stroke="#000000" stroke-width="1" />
 <line x1="90.04999999999998" y1="24.245000000000005" x2="121.18" y2="22.130000000000024" stroke="#000000" stroke-width="1" />
 <line x1="90.04999999999998" y1="24.245000000000005" x2="65.58500000000001" y2="13.844999999999999" stroke="#000000" stroke-width="1" />
 <line x1="90.04999999999998" y1="24.245000000000005" x2="98.66499999999999" y2="56.73500000000004" stroke="#000000" stroke-width="1" />
 <line x1="90.04999999999998" y1="24.245000000000005" x2="66.06" y2="26.980000000000018" stroke="#000000" stroke-width="1" />
 <line x1="90.04999999999998" y1="24.245000000000005" x2="98.22999999999999" y2="62.535" stroke="#000000" stroke-width="1" />
 <line x1="90.04999999999998" y1="24.245000000000005" x2="98.87" y2="-21.16000000000001" stroke="#000000" stroke-width="1" />
 <line x1="90.04999999999998" y1="24.245000000000005" x2="83.10499999999999" y2="18.765000000000015" stroke="#000000" stroke-width="1" />
 <line x1="90.04999999999998" y1="24.245000000000005" x2="105.875" y2="56.73500000000004" stroke="#000000" stroke-width="1" />
 <line x1="90.04999999999998" y1="24.245000000000005" x2="106.805" y2="7.240000000000009" stroke="#000000" stroke-width="1" />
 <line x1="90.04999999999998" y1="24.245000000000005" x2="119.14500000000001" y2="15.5" stroke="#000000" stroke-width="1" />
 <line x1="90.04999999999998" y1="24.245000000000005" x2="106.31" y2="1.4050000000000011" stroke="#000000" stroke-width="1" />
 <line x1="90.04999999999998" y1="24.245000000000005" x2="101.65" y2="18.72" stroke="#000000" stroke-width="1" />
 <line x1="90.04999999999998" y1="24.245000000000005" x2="82.995" y2="12.900000000000006" stroke="#000000" stroke-width="1" />
 <line x1="90.04999999999998" y1="24.245000000000005" x2="94.04499999999999" y2="6.090000000000003" stroke="#000000" stroke-width="1" />
 <line x1="90.04999999999998" y1="24.245000000000005" x2="141.605" y2="29.795000000000016" stroke="#000000" stroke-width="1" />
 <line x1="90.04999999999998" y1="24.245000000000005" x2="70.47" y2="-7.310000000000002" stroke="#000000" stroke-width="1" />
 <line x1="90.04999999999998" y1="24.245000000000005" x2="90.945" y2="57.13500000000002" stroke="#000000" stroke-width="1" />
 <line x1="90.04999999999998" y1="24.245000000000005" x2="88.24000000000001" y2="7.094999999999999" stroke="#000000" stroke-width="1" />
 <line x1="90.04999999999998" y1="24.245000000000005" x2="121.94999999999999" y2="9.695000000000022" stroke="#000000" stroke-width="1" />
 <line x1="90.04999999999998" y1="24.245000000000005" x2="97.595" y2="-5.819999999999993" stroke="#000000" stroke-width="1" />
 <line x1="90.04999999999998" y1="24.245000000000005" x2="82.11500000000001" y2="-3.3899999999999864" stroke="#000000" stroke-width="1" />
 <line x1="90.04999999999998" y1="24.245000000000005" x2="69.775" y2="49.565000000000026" stroke="#000000" stroke-width="1" />
 <line x1="90.04999999999998" y1="24.245000000000005" x2="102.32999999999998" y2="33.13499999999999" stroke="#000000" stroke-width="1" />
 <line x1="90.04999999999998" y1="24.245000000000005" x2="81.435" y2="4.825000000000017" stroke="#000000" stroke-width="1" />
 <line x1="90.04999999999998" y1="24.245000000000005" x2="88.905" y2="15.160000000000025" stroke="#000000" stroke-width="1" />
 <line x1="90.04999999999998" y1="24.245000000000005" x2="56.66499999999999" y2="15.195000000000022" stroke="#000000" stroke-width="1" />
 <line x1="90.04999999999998" y1="24.245000000000005" x2="99.25999999999999" y2="45.129999999999995" stroke="#000000" stroke-width="1" />
 <line x1="90.04999999999998" y1="24.245000000000005" x2="91.75" y2="0.25" stroke="#000000" stroke-width="1" />
 <line x1="28.5" y1="49.545000000000044" x2="3.655000000000001" y2="40.02000000000001" stroke="#000000" stroke-width="1" />
 <line x1="28.5" y1="49.545000000000044" x2="-3.6450000000000102" y2="72.75000000000003" stroke="#000000" stroke-width="1" />
 <line x1="28.5" y1="49.545000000000044" x2="11.35499999999999" y2="22.75" stroke="#000000" stroke-width="1" />
 <line x1="28.5" y1="49.545000000000044" x2="-25.079999999999984" y2="53.49000000000004" stroke="#000000" stroke-width="1" />
 <line x1="28.5" y1="49.545000000000044" x2="17.345" y2="64.33000000000001" stroke="#000000" stroke-width="1" />
 <line x1="28.5" y1="49.545000000000044" x2="-7.635000000000019" y2="30.694999999999993" stroke="#000000" stroke-width="1" />
 <line x1="28.5" y1="49.545000000000044" x2="56.639999999999986" y2="63.98500000000004" stroke="#000000" stroke-width="1" />
 <line x1="28.5" y1="49.545000000000044" x2="17.159999999999997" y2="27.465000000000003" stroke="#000000" stroke-width="1" />
 <line x1="28.5" y1="49.545000000000044" x2="48.285" y2="89.69000000000003" stroke="#000000" stroke-width="1" />
 <line x1="28.5" y1="49.545000000000044" x2="19.794999999999987" y2="71.63500000000002" stroke="#000000" stroke-width="1" />
 <line x1="28.5" y1="49.545000000000044" x2="-35.41" y2="55.25000000000003" stroke="#000000" stroke-width="1" />
 <line x1="28.5" y1="49.545000000000044" x2="26.585000000000008" y2="19.78" stroke="#000000" stroke-width="1" />
 <line x1="28.5" y1="49.545000000000044" x2="11.359999999999985" y2="29.085000000000008" stroke="#000000" stroke-width="1" />
 <line x1="28.5" y1="49.545000000000044" x2="41.785" y2="31.215000000000003" stroke="#000000" stroke-width="1" />
 <line x1="28.5" y1="49.545000000000044" x2="9.875" y2="40.02000000000001" stroke="#000000" stroke-width="1" />
 <line x1="28.5" y1="49.545000000000044" x2="33.34" y2="77.53999999999999" stroke="#000000" stroke-width="1" />
 <line x1="28.5" y1="49.545000000000044" x2="15.870000000000005" y2="34.89500000000001" stroke="#000000" stroke-width="1" />
 <line x1="28.5" y1="49.545000000000044" x2="34.599999999999994" y2="23.36500000000001" stroke="#000000" stroke-width="1" />
 <line x1="28.5" y1="49.545000000000044" x2="57.764999999999986" y2="108.14000000000001" stroke="#000000" stroke-width="1" />
 <line x1="28.5" y1="49.545000000000044" x2="52.125" y2="79.975" stroke="#000000" stroke-width="1" />
 <line x1="28.5" y1="49.545000000000044" x2="37.07499999999999" y2="56.83000000000001" stroke="#000000" stroke-width="1" />
 <line x1="28.5" y1="49.545000000000044" x2="-1.2600000000000193" y2="45.93000000000001" stroke="#000000" stroke-width="1" />
 <line x1="28.5" y1="49.545000000000044" x2="39.49000000000001" y2="69.70500000000001" stroke="#000000" stroke-width="1" />
 <line x1="28.5" y1="49.545000000000044" x2="35.454999999999984" y2="37.88499999999999" stroke="#000000" stroke-width="1" />
 <line x1="28.5" y1="49.545000000000044" x2="37.19999999999999" y2="51.03" stroke="#000000" stroke-width="1" />
 <line x1="28.5" y1="49.545000000000044" x2="48.44999999999999" y2="67.525" stroke="#000000" stroke-width="1" />
 <line x1="28.5" y1="49.545000000000044" x2="16.555000000000007" y2="49.25" stroke="#000000" stroke-width="1" />
 <line x1="28.5" y1="49.545000000000044" x2="22.47" y2="43.545000000000016" stroke="#000000" stroke-width="1" />
 <line x1="28.5" y1="49.545000000000044" x2="51.715" y2="47.849999999999994" stroke="#000000" stroke-width="1" />
 <line x1="28.5" y1="49.545000000000044" x2="30.590000000000003" y2="55.775000000000006" stroke="#000000" stroke-width="1" />
 <line x1="28.5" y1="49.545000000000044" x2="11.094999999999999" y2="57.42500000000004" stroke="#000000" stroke-width="1" />
 <line x1="28.5" y1="49.545000000000044" x2="38.224999999999994" y2="62.63500000000002" stroke="#000000" stroke-width="1" />
 <line x1="28.5" y1="49.545000000000044" x2="24.319999999999993" y2="59.99500000000003" stroke="#000000" stroke-width="1" />
 <line x1="28.5" y1="49.545000000000044" x2="40.109999999999985" y2="44.93000000000001" stroke="#000000" stroke-width="1" />
 <line x1="28.5" y1="49.545000000000044" x2="32.41499999999999" y2="63.805000000000035" stroke="#000000" stroke-width="1" />
 <line x1="28.5" y1="49.545000000000044" x2="44.04499999999999" y2="61.724999999999994" stroke="#000000" stroke-width="1" />
 <line x1="28.5" y1="49.545000000000044" x2="34.30500000000001" y2="45.224999999999994" stroke="#000000" stroke-width="1" />
 <line x1="28.5" y1="49.545000000000044" x2="4.554999999999978" y2="45.81999999999999" stroke="#000000" stroke-width="1" />
 <line x1="28.5" y1="49.545000000000044" x2="22.69999999999999" y2="54.180000000000035" stroke="#000000" stroke-width="1" />
 <line x1="28.5" y1="49.545000000000044" x2="21.814999999999998" y2="37.045000000000016" stroke="#000000" stroke-width="1" />
 <line x1="28.5" y1="49.545000000000044" x2="5.554999999999978" y2="28.36500000000001" stroke="#000000" stroke-width="1" />
 <line x1="28.5" y1="49.545000000000044" x2="48.07499999999999" y2="37.41" stroke="#000000" stroke-width="1" />
 <line x1="28.5" y1="49.545000000000044" x2="45.91" y2="43.985000000000014" stroke="#000000" stroke-width="1" />
 <line x1="28.5" y1="49.545000000000044" x2="20.10499999999999" y2="21.660000000000025" stroke="#000000" stroke-width="1" />
 <line x1="28.5" y1="49.545000000000044" x2="29.329999999999984" y2="39.42500000000001" stroke="#000000" stroke-width="1" />
 <line x1="28.5" y1="49.545000000000044" x2="35.69999999999999" y2="32.00999999999999" stroke="#000000" stroke-width="1" />
 <line x1="28.5" y1="49.545000000000044" x2="43.0" y2="55.920000000000044" stroke="#000000" stroke-width="1" />
 <line x1="91.625" y1="81.92500000000004" x2="82.345" y2="82.28" stroke="#000000" stroke-width="1" />
 <line x1="91.625" y1="81.92500000000004" x2="82.49000000000001" y2="70.55500000000004" stroke="#000000" stroke-width="1" />
 <line x1="91.625" y1="81.92500000000004" x2="90.69" y2="111.00000000000003" stroke="#000000" stroke-width="1" />
 <line x1="91.625" y1="81.92500000000004" x2="95.82999999999998" y2="94.51500000000001" stroke="#000000" stroke-width="1" />
 <line x1="111.61500000000001" y1="80.00000000000003" x2="114.91" y2="111.49000000000004" stroke="#000000" stroke-width="1" />
 <line x1="71.41999999999999" y1="-19.20999999999998" x2="69.35999999999999" y2="-25.155" stroke="#000000" stroke-width="1" />
 <line x1="71.41999999999999" y1="-19.20999999999998" x2="63.69499999999999" y2="-31.05499999999998" stroke="#000000" stroke-width="1" />
 <line x1="125.53999999999999" y1="37.17500000000001" x2="137.145" y2="41.92500000000001" stroke="#000000" stroke-width="1" />
 <line x1="133.34" y1="16.24000000000001" x2="148.04" y2="12.525000000000006" stroke="#000000" stroke-width="1" />
 <line x1="133.34" y1="16.24000000000001" x2="141.80499999999998" y2="3.219999999999999" stroke="#000000" stroke-width="1" />
 <line x1="133.34" y1="16.24000000000001" x2="153.86499999999992" y2="-0.8049999999999784" stroke="#000000" stroke-width="1" />
 <line x1="125.85999999999999" y1="55.34" x2="145.73499999999999" y2="65.48000000000005" stroke="#000000" stroke-width="1" />
 <line x1="100.29499999999999" y1="-15.224999999999994" x2="99.642" y2="-16.07419999999999" stroke="#000000" stroke-width="1" />
 <line x1="100.29499999999999" y1="-15.224999999999994" x2="115.87" y2="-19.05499999999998" stroke="#000000" stroke-width="1" />
 <line x1="100.29499999999999" y1="-15.224999999999994" x2="118.54999999999998" y2="-25.419999999999987" stroke="#000000" stroke-width="1" />
 <line x1="100.29499999999999" y1="-15.224999999999994" x2="109.82499999999999" y2="-27.129999999999967" stroke="#000000" stroke-width="1" />
 <line x1="100.29499999999999" y1="-15.224999999999994" x2="100.0058" y2="-15.540999999999997" stroke="#000000" stroke-width="1" />
 <line x1="100.29499999999999" y1="-15.224999999999994" x2="114.975" y2="-33.014999999999986" stroke="#000000" stroke-width="1" />
 <line x1="100.29499999999999" y1="-15.224999999999994" x2="104.58500000000001" y2="-32.93999999999997" stroke="#000000" stroke-width="1" />
 <line x1="63.004999999999995" y1="-9.539999999999992" x2="50.18000000000001" y2="-20.224999999999994" stroke="#000000" stroke-width="1" />
 <line x1="98.87" y1="-21.16000000000001" x2="97.44999999999999" y2="-45.98999999999998" stroke="#000000" stroke-width="1" />
 <line x1="-25.079999999999984" y1="53.49000000000004" x2="-13.200000000000017" y2="43.400000000000006" stroke="#000000" stroke-width="1" />
 <line x1="-25.079999999999984" y1="53.49000000000004" x2="-28.88299999999998" y2="51.91900000000001" stroke="#000000" stroke-width="1" />
 <line x1="-25.079999999999984" y1="53.49000000000004" x2="-23.870000000000005" y2="50.20100000000002" stroke="#000000" stroke-width="1" />
 <line x1="-25.079999999999984" y1="53.49000000000004" x2="-26.942999999999984" y2="50.36100000000002" stroke="#000000" stroke-width="1" />
 <line x1="-25.079999999999984" y1="53.49000000000004" x2="-31.147999999999996" y2="52.91900000000004" stroke="#000000" stroke-width="1" />
 <line x1="-25.079999999999984" y1="53.49000000000004" x2="-26.053799999999995" y2="54.02740000000003" stroke="#000000" stroke-width="1" />
 <line x1="-25.079999999999984" y1="53.49000000000004" x2="-25.698199999999986" y2="54.18660000000003" stroke="#000000" stroke-width="1" />
 <line x1="-25.079999999999984" y1="53.49000000000004" x2="-30.079000000000008" y2="54.19100000000003" stroke="#000000" stroke-width="1" />
 <line x1="-25.079999999999984" y1="53.49000000000004" x2="-19.19500000000002" y2="49.08000000000001" stroke="#000000" stroke-width="1" />
 <line x1="-25.079999999999984" y1="53.49000000000004" x2="-28.852000000000004" y2="53.84300000000002" stroke="#000000" stroke-width="1" />
 <line x1="-25.079999999999984" y1="53.49000000000004" x2="-25.847799999999978" y2="53.79520000000005" stroke="#000000" stroke-width="1" />
 <line x1="-25.079999999999984" y1="53.49000000000004" x2="-25.38579999999999" y2="54.14380000000003" stroke="#000000" stroke-width="1" />
 <line x1="17.345" y1="64.33000000000001" x2="20.311999999999983" y2="65.39200000000002" stroke="#000000" stroke-width="1" />
 <line x1="-7.635000000000019" y1="30.694999999999993" x2="-36.005000000000024" y2="21.450000000000017" stroke="#000000" stroke-width="1" />
 <line x1="56.639999999999986" y1="63.98500000000004" x2="67.60999999999999" y2="67.72" stroke="#000000" stroke-width="1" />
 <line x1="48.285" y1="89.69000000000003" x2="48.76399999999998" y2="90.18440000000001" stroke="#000000" stroke-width="1" />
 <line x1="48.285" y1="89.69000000000003" x2="48.5582" y2="89.85920000000002" stroke="#000000" stroke-width="1" />
 <line x1="-35.41" y1="55.25000000000003" x2="-72.945" y2="61.03999999999999" stroke="#000000" stroke-width="1" />
 <line x1="57.764999999999986" y1="108.14000000000001" x2="49.08500000000001" y2="127.15" stroke="#000000" stroke-width="1" />
 <line x1="57.764999999999986" y1="108.14000000000001" x2="63.215" y2="131.32500000000002" stroke="#000000" stroke-width="1" />
 <line x1="57.764999999999986" y1="108.14000000000001" x2="62.06999999999999" y2="125.45500000000001" stroke="#000000" stroke-width="1" />
 <line x1="57.764999999999986" y1="108.14000000000001" x2="54.889999999999986" y2="132.665" stroke="#000000" stroke-width="1" />
 <line x1="57.764999999999986" y1="108.14000000000001" x2="63.91" y2="119.46000000000001" stroke="#000000" stroke-width="1" />
 <line x1="57.764999999999986" y1="108.14000000000001" x2="50.79499999999999" y2="120.64500000000001" stroke="#000000" stroke-width="1" />
 <line x1="57.764999999999986" y1="108.14000000000001" x2="55.35499999999999" y2="126.465" stroke="#000000" stroke-width="1" />
 <line x1="51.715" y1="47.849999999999994" x2="57.514999999999986" y2="50.06000000000003" stroke="#000000" stroke-width="1" />
 <line x1="114.91" y1="111.49000000000004" x2="121.26499999999999" y2="111.975" stroke="#000000" stroke-width="1" />
 <line x1="114.91" y1="111.49000000000004" x2="117.346" y2="109.15100000000004" stroke="#000000" stroke-width="1" />
 <line x1="114.91" y1="111.49000000000004" x2="113.35999999999999" y2="94.28999999999999" stroke="#000000" stroke-width="1" />
 <line x1="114.91" y1="111.49000000000004" x2="120.275" y2="94.13000000000002" stroke="#000000" stroke-width="1" />
 <line x1="114.91" y1="111.49000000000004" x2="102.38499999999999" y2="117.80500000000004" stroke="#000000" stroke-width="1" />
 <line x1="114.91" y1="111.49000000000004" x2="102.07" y2="123.71000000000001" stroke="#000000" stroke-width="1" />
 <line x1="114.91" y1="111.49000000000004" x2="104.71000000000001" y2="107.97" stroke="#000000" stroke-width="1" />
 <line x1="114.91" y1="111.49000000000004" x2="109.695" y2="101.845" stroke="#000000" stroke-width="1" />
 <line x1="137.145" y1="41.92500000000001" x2="148.74499999999995" y2="46.129999999999995" stroke="#000000" stroke-width="1" />
 <line x1="137.145" y1="41.92500000000001" x2="139.91" y2="49.96000000000001" stroke="#000000" stroke-width="1" />
 <line x1="145.73499999999999" y1="65.48000000000005" x2="141.32500000000002" y2="71.28" stroke="#000000" stroke-width="1" />
 <line x1="145.73499999999999" y1="65.48000000000005" x2="142.15" y2="79.58500000000001" stroke="#000000" stroke-width="1" />
 <line x1="145.73499999999999" y1="65.48000000000005" x2="148.36999999999995" y2="71.61000000000004" stroke="#000000" stroke-width="1" />
 <line x1="145.73499999999999" y1="65.48000000000005" x2="164.27" y2="56.155" stroke="#000000" stroke-width="1" />
 <line x1="145.73499999999999" y1="65.48000000000005" x2="165.38000000000002" y2="66.81500000000003" stroke="#000000" stroke-width="1" />
 <line x1="145.73499999999999" y1="65.48000000000005" x2="145.77" y2="51.93500000000003" stroke="#000000" stroke-width="1" />
 <line x1="50.18000000000001" y1="-20.224999999999994" x2="45.19499999999999" y2="-27.81499999999997" stroke="#000000" stroke-width="1" />
 <line x1="97.44999999999999" y1="-45.98999999999998" x2="114.47999999999999" y2="-40.02000000000001" stroke="#000000" stroke-width="1" />
 <line x1="97.44999999999999" y1="-45.98999999999998" x2="101.57999999999998" y2="-75.47299999999998" stroke="#000000" stroke-width="1" />
 <line x1="97.44999999999999" y1="-45.98999999999998" x2="91.09" y2="-42.78999999999999" stroke="#000000" stroke-width="1" />
 <line x1="97.44999999999999" y1="-45.98999999999998" x2="86.375" y2="-54.460999999999984" stroke="#000000" stroke-width="1" />
 <line x1="97.44999999999999" y1="-45.98999999999998" x2="104.32999999999998" y2="-44.609999999999985" stroke="#000000" stroke-width="1" />
 <line x1="97.44999999999999" y1="-45.98999999999998" x2="91.63999999999999" y2="-48.60499999999999" stroke="#000000" stroke-width="1" />
 <line x1="97.44999999999999" y1="-45.98999999999998" x2="82.965" y2="-66.1745" stroke="#000000" stroke-width="1" />
 <line x1="20.311999999999983" y1="65.39200000000002" x2="19.150999999999982" y2="66.53200000000001" stroke="#000000" stroke-width="1" />
 <line x1="-36.005000000000024" y1="21.450000000000017" x2="-14.515000000000015" y2="13.710000000000008" stroke="#000000" stroke-width="1" />
 <line x1="-36.005000000000024" y1="21.450000000000017" x2="-30.19500000000002" y2="26.24000000000001" stroke="#000000" stroke-width="1" />
 <line x1="-36.005000000000024" y1="21.450000000000017" x2="-13.439999999999998" y2="25.689999999999998" stroke="#000000" stroke-width="1" />
 <line x1="-36.005000000000024" y1="21.450000000000017" x2="-19.255000000000024" y2="25.325000000000017" stroke="#000000" stroke-width="1" />
 <line x1="-36.005000000000024" y1="21.450000000000017" x2="-18.590000000000003" y2="7.905000000000001" stroke="#000000" stroke-width="1" />
 <line x1="-36.005000000000024" y1="21.450000000000017" x2="-60.610000000000014" y2="21.605000000000018" stroke="#000000" stroke-width="1" />
 <line x1="-36.005000000000024" y1="21.450000000000017" x2="-36.43380000000002" y2="20.886800000000022" stroke="#000000" stroke-width="1" />
 <line x1="-36.005000000000024" y1="21.450000000000017" x2="-59.21000000000001" y2="14.430000000000007" stroke="#000000" stroke-width="1" />
 <line x1="-36.005000000000024" y1="21.450000000000017" x2="-19.380000000000024" y2="31.235000000000014" stroke="#000000" stroke-width="1" />
 <line x1="-36.005000000000024" y1="21.450000000000017" x2="-25.19999999999999" y2="9.840000000000003" stroke="#000000" stroke-width="1" />
 <line x1="-36.005000000000024" y1="21.450000000000017" x2="-33.27000000000001" y2="-13.36499999999998" stroke="#000000" stroke-width="1" />
 <line x1="-36.005000000000024" y1="21.450000000000017" x2="-37.40300000000002" y2="33.667" stroke="#000000" stroke-width="1" />
 <line x1="67.60999999999999" y1="67.72" x2="73.41499999999999" y2="63.64500000000001" stroke="#000000" stroke-width="1" />
 <line x1="-72.945" y1="61.03999999999999" x2="-84.555" y2="51.98500000000004" stroke="#000000" stroke-width="1" />
 <line x1="-72.945" y1="61.03999999999999" x2="-78.75649999999999" y2="62.28" stroke="#000000" stroke-width="1" />
 <line x1="-72.945" y1="61.03999999999999" x2="-70.07" y2="42.09" stroke="#000000" stroke-width="1" />
 <line x1="-72.945" y1="61.03999999999999" x2="-81.674" y2="34.92500000000001" stroke="#000000" stroke-width="1" />
 <line x1="-72.945" y1="61.03999999999999" x2="-82.07650000000001" y2="68.11500000000004" stroke="#000000" stroke-width="1" />
 <line x1="-72.945" y1="61.03999999999999" x2="-67.60499999999999" y2="82.11500000000004" stroke="#000000" stroke-width="1" />
 <line x1="-72.945" y1="61.03999999999999" x2="-87.87950000000001" y2="64.98000000000005" stroke="#000000" stroke-width="1" />
 <line x1="-72.945" y1="61.03999999999999" x2="-76.201" y2="73.97" stroke="#000000" stroke-width="1" />
 <line x1="-72.945" y1="61.03999999999999" x2="-84.62550000000002" y2="59.130000000000024" stroke="#000000" stroke-width="1" />
 <line x1="-72.945" y1="61.03999999999999" x2="-72.94900000000001" y2="52.565000000000026" stroke="#000000" stroke-width="1" />
 <line x1="-33.245000000000005" y1="-75.74749999999997" x2="-34.07000000000002" y2="-56.80549999999997" stroke="#000000" stroke-width="1" />
 <line x1="-34.07000000000002" y1="-56.80549999999997" x2="-40.984999999999985" y2="-82.28349999999998" stroke="#000000" stroke-width="1" />
 <line x1="-34.07000000000002" y1="-56.80549999999997" x2="-33.97999999999999" y2="-69.941" stroke="#000000" stroke-width="1" />
 <line x1="-34.07000000000002" y1="-56.80549999999997" x2="-19.330000000000013" y2="-65.52099999999999" stroke="#000000" stroke-width="1" />
 <line x1="-34.07000000000002" y1="-56.80549999999997" x2="-33.27000000000001" y2="-13.36499999999998" stroke="#000000" stroke-width="1" />
 <line x1="-34.07000000000002" y1="-56.80549999999997" x2="-42.150000000000006" y2="-68.60499999999999" stroke="#000000" stroke-width="1" />
 <line x1="-34.07000000000002" y1="-56.80549999999997" x2="-57.42499999999998" y2="-58.27449999999996" stroke="#000000" stroke-width="1" />
 <line x1="-34.07000000000002" y1="-56.80549999999997" x2="-18.784999999999997" y2="-71.32399999999998" stroke="#000000" stroke-width="1" />
 <line x1="-34.07000000000002" y1="-56.80549999999997" x2="-54.275000000000006" y2="-52.474999999999994" stroke="#000000" stroke-width="1" />
 <line x1="-34.07000000000002" y1="-56.80549999999997" x2="-45.68000000000001" y2="-58.436499999999995" stroke="#000000" stroke-width="1" />
 <line x1="-40.984999999999985" y1="-82.28349999999998" x2="-41.34" y2="-88.424" stroke="#000000" stroke-width="1" />
 <line x1="-33.27000000000001" y1="-13.36499999999998" x2="-1.115000000000009" y2="-33.214999999999975" stroke="#000000" stroke-width="1" />
 <line x1="-57.42499999999998" y1="-58.27449999999996" x2="-73.22749999999999" y2="-59.958999999999975" stroke="#000000" stroke-width="1" />
 <line x1="-18.784999999999997" y1="-71.32399999999998" x2="0.07500000000001705" y2="-83.67999999999998" stroke="#000000" stroke-width="1" />
 <line x1="-1.115000000000009" y1="-33.214999999999975" x2="-29.939999999999998" y2="-26.95999999999998" stroke="#000000" stroke-width="1" />
 <line x1="-1.115000000000009" y1="-33.214999999999975" x2="9.909999999999997" y2="-46.49999999999997" stroke="#000000" stroke-width="1" />
 <line x1="-1.115000000000009" y1="-33.214999999999975" x2="22.345" y2="-31.30499999999998" stroke="#000000" stroke-width="1" />
 <line x1="-1.115000000000009" y1="-33.214999999999975" x2="23.13499999999999" y2="-40.734999999999985" stroke="#000000" stroke-width="1" />
 <line x1="-1.115000000000009" y1="-33.214999999999975" x2="24.814999999999998" y2="-19.694999999999965" stroke="#000000" stroke-width="1" />
 <line x1="-1.115000000000009" y1="-33.214999999999975" x2="11.359999999999985" y2="-40.345" stroke="#000000" stroke-width="1" />
 <line x1="-1.115000000000009" y1="-33.214999999999975" x2="29.164999999999992" y2="-33.41" stroke="#000000" stroke-width="1" />
 <line x1="-1.115000000000009" y1="-33.214999999999975" x2="-17.715000000000003" y2="-15.685000000000002" stroke="#000000" stroke-width="1" />
 <line x1="-1.115000000000009" y1="-33.214999999999975" x2="-29.590000000000003" y2="-32.785" stroke="#000000" stroke-width="1" />
 <line x1="-1.115000000000009" y1="-33.214999999999975" x2="-8.655000000000001" y2="-44.83000000000001" stroke="#000000" stroke-width="1" />
 <line x1="-1.115000000000009" y1="-33.214999999999975" x2="-7.560000000000002" y2="-50.62999999999997" stroke="#000000" stroke-width="1" />
 <line x1="-1.115000000000009" y1="-33.214999999999975" x2="-11.685000000000002" y2="-39.02000000000001" stroke="#000000" stroke-width="1" />
 <line x1="-1.115000000000009" y1="-33.214999999999975" x2="17.88499999999999" y2="-51.94999999999996" stroke="#000000" stroke-width="1" />
 <line x1="-1.115000000000009" y1="-33.214999999999975" x2="3.835000000000008" y2="-13.074999999999989" stroke="#000000" stroke-width="1" />
 <line x1="-1.115000000000009" y1="-33.214999999999975" x2="9.859999999999985" y2="-7.234999999999985" stroke="#000000" stroke-width="1" />
 <line x1="-1.115000000000009" y1="-33.214999999999975" x2="19.00999999999999" y2="-18.94999999999996" stroke="#000000" stroke-width="1" />
 <line x1="-1.115000000000009" y1="-33.214999999999975" x2="-3.6450000000000102" y2="-21.605000000000004" stroke="#000000" stroke-width="1" />
 <line x1="-1.115000000000009" y1="-33.214999999999975" x2="-23.625" y2="-27.289999999999992" stroke="#000000" stroke-width="1" />
 <line x1="-1.115000000000009" y1="-33.214999999999975" x2="-6.030000000000001" y2="-15.804999999999978" stroke="#000000" stroke-width="1" />
 <line x1="-1.115000000000009" y1="-33.214999999999975" x2="-21.215000000000003" y2="-33.095" stroke="#000000" stroke-width="1" />
 <line x1="-1.115000000000009" y1="-33.214999999999975" x2="-12.080000000000013" y2="-21.485" stroke="#000000" stroke-width="1" />
 <line x1="-1.115000000000009" y1="-33.214999999999975" x2="-18.14500000000001" y2="-38.89500000000001" stroke="#000000" stroke-width="1" />
 <line x1="-1.115000000000009" y1="-33.214999999999975" x2="10.22999999999999" y2="-26.419999999999987" stroke="#000000" stroke-width="1" />
 <line x1="-1.115000000000009" y1="-33.214999999999975" x2="-9.255000000000024" y2="-56.43100000000001" stroke="#000000" stroke-width="1" />
 <line x1="-1.115000000000009" y1="-33.214999999999975" x2="10.264999999999986" y2="-16.744999999999976" stroke="#000000" stroke-width="1" />
 <line x1="-1.115000000000009" y1="-33.214999999999975" x2="10.490000000000009" y2="-34.54499999999999" stroke="#000000" stroke-width="1" />
 <line x1="-1.115000000000009" y1="-33.214999999999975" x2="-14.460000000000008" y2="-48.650000000000006" stroke="#000000" stroke-width="1" />
 <line x1="-1.115000000000009" y1="-33.214999999999975" x2="-26.085000000000008" y2="-44.599999999999994" stroke="#000000" stroke-width="1" />
 <line x1="-1.115000000000009" y1="-33.214999999999975" x2="27.569999999999993" y2="-25.504999999999967" stroke="#000000" stroke-width="1" />
 <line x1="-1.115000000000009" y1="-33.214999999999975" x2="-22.525000000000006" y2="-21.489999999999995" stroke="#000000" stroke-width="1" />
 <line x1="-73.22749999999999" y1="-59.958999999999975" x2="-90.6215" y2="-56.68949999999998" stroke="#000000" stroke-width="1" />
 <line x1="0.07500000000001705" y1="-83.67999999999998" x2="6.35499999999999" y2="-83.83949999999996" stroke="#000000" stroke-width="1" />
 <line x1="0.07500000000001705" y1="-83.67999999999998" x2="-2.5349999999999966" y2="-93.87099999999995" stroke="#000000" stroke-width="1" />
 <line x1="114.47999999999999" y1="-40.02000000000001" x2="125.09" y2="-37.85499999999999" stroke="#000000" stroke-width="1" />
 <line x1="114.47999999999999" y1="-40.02000000000001" x2="120.285" y2="-43.66499999999999" stroke="#000000" stroke-width="1" />
 <line x1="101.57999999999998" y1="-75.47299999999998" x2="117.60999999999999" y2="-61.109999999999985" stroke="#000000" stroke-width="1" />
 <line x1="101.57999999999998" y1="-75.47299999999998" x2="109.10999999999999" y2="-59.934" stroke="#000000" stroke-width="1" />
 <line x1="-37.57400000000001" y1="39.59200000000001" x2="-37.40300000000002" y2="33.667" stroke="#000000" stroke-width="1" />
 <line x1="-37.40300000000002" y1="33.667" x2="-31.463000000000022" y2="39.349999999999994" stroke="#000000" stroke-width="1" />
 <line x1="-37.40300000000002" y1="33.667" x2="-32.781000000000034" y2="39.265000000000015" stroke="#000000" stroke-width="1" />
 <line x1="-37.40300000000002" y1="33.667" x2="-40.86100000000002" y2="36.31800000000001" stroke="#000000" stroke-width="1" />
 <line x1="-37.40300000000002" y1="33.667" x2="-34.797000000000025" y2="36.09800000000001" stroke="#000000" stroke-width="1" />
 <line x1="-37.40300000000002" y1="33.667" x2="-39.460000000000036" y2="37.32500000000002" stroke="#000000" stroke-width="1" />
 <line x1="-37.40300000000002" y1="33.667" x2="-40.62700000000004" y2="38.33600000000001" stroke="#000000" stroke-width="1" />
 <line x1="-37.40300000000002" y1="33.667" x2="-39.82800000000003" y2="32.899000000000015" stroke="#000000" stroke-width="1" />
 <line x1="-37.40300000000002" y1="33.667" x2="-36.390000000000015" y2="38.88300000000001" stroke="#000000" stroke-width="1" />
 <line x1="-37.40300000000002" y1="33.667" x2="-38.110000000000014" y2="38.42300000000003" stroke="#000000" stroke-width="1" />
 <line x1="-37.40300000000002" y1="33.667" x2="-38.565000000000026" y2="34.36300000000003" stroke="#000000" stroke-width="1" />
 <line x1="-37.40300000000002" y1="33.667" x2="-39.70000000000002" y2="35.53999999999999" stroke="#000000" stroke-width="1" />
 <line x1="-37.40300000000002" y1="33.667" x2="-36.23900000000003" y2="34.15299999999999" stroke="#000000" stroke-width="1" />
 <line x1="-37.40300000000002" y1="33.667" x2="-37.43700000000001" y2="37.253000000000014" stroke="#000000" stroke-width="1" />
 <line x1="-31.463000000000022" y1="39.349999999999994" x2="-26.79200000000003" y2="35.15299999999999" stroke="#000000" stroke-width="1" />
 <line x1="-32.781000000000034" y1="39.265000000000015" x2="-33.01600000000002" y2="42.97900000000001" stroke="#000000" stroke-width="1" />
 <line x1="-34.797000000000025" y1="36.09800000000001" x2="-34.79029600000001" y2="36.11692000000002" stroke="#000000" stroke-width="1" />
 <line x1="-17.715000000000003" y1="-15.685000000000002" x2="-17.414999999999992" y2="-7.574999999999989" stroke="#000000" stroke-width="1" />
 <line x1="17.88499999999999" y1="-51.94999999999996" x2="26.900000000000006" y2="-61.54400000000001" stroke="#000000" stroke-width="1" />
 <line x1="9.859999999999985" y1="-7.234999999999985" x2="17.710000000000008" y2="4.255000000000024" stroke="#000000" stroke-width="1" />
 <line x1="9.859999999999985" y1="-7.234999999999985" x2="9.697599999999985" y2="-6.782999999999986" stroke="#000000" stroke-width="1" />
 <line x1="26.900000000000006" y1="-61.54400000000001" x2="42.245000000000005" y2="-63.46950000000001" stroke="#000000" stroke-width="1" />
 <line x1="26.900000000000006" y1="-61.54400000000001" x2="26.72999999999999" y2="-69.79749999999999" stroke="#000000" stroke-width="1" />
 <line x1="26.900000000000006" y1="-61.54400000000001" x2="15.215000000000003" y2="-67.99449999999999" stroke="#000000" stroke-width="1" />
 <line x1="26.900000000000006" y1="-61.54400000000001" x2="35.66" y2="-58.54400000000001" stroke="#000000" stroke-width="1" />
 <line x1="26.900000000000006" y1="-61.54400000000001" x2="20.924999999999983" y2="-57.75399999999999" stroke="#000000" stroke-width="1" />
 <line x1="26.900000000000006" y1="-61.54400000000001" x2="39.05500000000001" y2="-78.535" stroke="#000000" stroke-width="1" />
 <line x1="39.05500000000001" y1="-78.535" x2="44.86500000000001" y2="-83.49499999999998" stroke="#000000" stroke-width="1" />
 <line x1="39.05500000000001" y1="-78.535" x2="37.954999999999984" y2="-85.874" stroke="#000000" stroke-width="1" />
 <line x1="39.05500000000001" y1="-78.535" x2="39.43820000000002" y2="-79.34502" stroke="#000000" stroke-width="1" />
 <line x1="42.245000000000005" y1="-63.46950000000001" x2="57.91999999999999" y2="-62.297" stroke="#000000" stroke-width="1" />
 <line x1="57.91999999999999" y1="-62.297" x2="69.525" y2="-67.3835" stroke="#000000" stroke-width="1" />
 <line x1="57.91999999999999" y1="-62.297" x2="51.215" y2="-64.51249999999996" stroke="#000000" stroke-width="1" />
 <line x1="57.91999999999999" y1="-62.297" x2="64.81" y2="-44.16999999999999" stroke="#000000" stroke-width="1" />
 <line x1="57.91999999999999" y1="-62.297" x2="75.29499999999999" y2="-55.382499999999965" stroke="#000000" stroke-width="1" />
 <line x1="-81.674" y1="34.92500000000001" x2="-96.95349999999999" y2="17.435000000000002" stroke="#000000" stroke-width="1" />
 <line x1="-81.674" y1="34.92500000000001" x2="-99.08500000000001" y2="34.58000000000001" stroke="#000000" stroke-width="1" />
 <line x1="-81.674" y1="34.92500000000001" x2="-93.2815" y2="35.32500000000002" stroke="#000000" stroke-width="1" />
 <line x1="-76.201" y1="73.97" x2="-89.82" y2="80.215" stroke="#000000" stroke-width="1" />
 <line x1="-96.95349999999999" y1="17.435000000000002" x2="-101.47200000000001" y2="-5.699999999999989" stroke="#000000" stroke-width="1" />
 <line x1="-96.95349999999999" y1="17.435000000000002" x2="-85.34900000000002" y2="16.689999999999998" stroke="#000000" stroke-width="1" />
 <line x1="-89.82" y1="80.215" x2="-103.2295" y2="59.17500000000004" stroke="#000000" stroke-width="1" />
 <line x1="-89.82" y1="80.215" x2="-109.73500000000004" y2="50.474999999999994" stroke="#000000" stroke-width="1" />
 <line x1="-89.82" y1="80.215" x2="-109.15700000000001" y2="75.01000000000002" stroke="#000000" stroke-width="1" />
 <line x1="-89.82" y1="80.215" x2="-100.3775" y2="82.24000000000004" stroke="#000000" stroke-width="1" />
 <line x1="-89.82" y1="80.215" x2="-85.8175" y2="86.035" stroke="#000000" stroke-width="1" />
 <line x1="-89.82" y1="80.215" x2="-84.53900000000002" y2="98.63000000000002" stroke="#000000" stroke-width="1" />
 <line x1="-26.79200000000003" y1="35.15299999999999" x2="-23.630000000000024" y2="40.974999999999994" stroke="#000000" stroke-width="1" />
 <line x1="-26.79200000000003" y1="35.15299999999999" x2="-30.26200000000003" y2="37.87000000000003" stroke="#000000" stroke-width="1" />
 <line x1="-26.79200000000003" y1="35.15299999999999" x2="-24.79000000000002" y2="40.58200000000002" stroke="#000000" stroke-width="1" />
 <line x1="-26.79200000000003" y1="35.15299999999999" x2="-26.936000000000035" y2="36.31399999999999" stroke="#000000" stroke-width="1" />
 <line x1="-14.515000000000015" y1="13.710000000000008" x2="-0.3900000000000148" y2="9.469999999999999" stroke="#000000" stroke-width="1" />
 <line x1="-14.515000000000015" y1="13.710000000000008" x2="-19.168000000000006" y2="11.777000000000015" stroke="#000000" stroke-width="1" />
 <line x1="-14.515000000000015" y1="13.710000000000008" x2="-19.973000000000013" y2="15.27900000000001" stroke="#000000" stroke-width="1" />
 <line x1="-14.515000000000015" y1="13.710000000000008" x2="-13.969999999999999" y2="19.52000000000001" stroke="#000000" stroke-width="1" />
 <line x1="-14.515000000000015" y1="13.710000000000008" x2="-16.918000000000006" y2="11.775000000000006" stroke="#000000" stroke-width="1" />
 <line x1="-14.515000000000015" y1="13.710000000000008" x2="0.0" y2="0.0" stroke="#000000" stroke-width="1" />
 <line x1="-59.21000000000001" y1="14.430000000000007" x2="-67.85" y2="5.564999999999998" stroke="#000000" stroke-width="1" />
 <line x1="109.10999999999999" y1="-59.934" x2="110.20899999999997" y2="-61.538700000000006" stroke="#000000" stroke-width="1" />
 <line x1="-19.168000000000006" y1="11.777000000000015" x2="-22.283000000000015" y2="11.239000000000004" stroke="#000000" stroke-width="1" />
 <line x1="-67.85" y1="5.564999999999998" x2="-82.42350000000002" y2="9.245000000000005" stroke="#000000" stroke-width="1" />
 <line x1="-67.85" y1="5.564999999999998" x2="-72.44649999999999" y2="-7.674999999999983" stroke="#000000" stroke-width="1" />
 <line x1="-67.85" y1="5.564999999999998" x2="-72.793" y2="-0.8949999999999818" stroke="#000000" stroke-width="1" />
 <line x1="-67.85" y1="5.564999999999998" x2="-65.06" y2="-0.6999999999999886" stroke="#000000" stroke-width="1" />
 <line x1="-22.283000000000015" y1="11.239000000000004" x2="-22.346000000000004" y2="12.40100000000001" stroke="#000000" stroke-width="1" />
 <line x1="-84.839" y1="-12.85499999999999" x2="-78.2705" y2="-12.019999999999982" stroke="#000000" stroke-width="1" />
 <line x1="-78.2705" y1="-12.019999999999982" x2="-72.44649999999999" y2="-7.674999999999983" stroke="#000000" stroke-width="1" />
 <line x1="-72.44649999999999" y1="-7.674999999999983" x2="-79.00450000000001" y2="-18.514999999999986" stroke="#000000" stroke-width="1" />
 <line x1="-79.00450000000001" y1="-18.514999999999986" x2="-72.392" y2="-24.694999999999965" stroke="#000000" stroke-width="1" />
 <line x1="-79.00450000000001" y1="-18.514999999999986" x2="-78.20750000000001" y2="-24.58499999999998" stroke="#000000" stroke-width="1" />
 <line x1="-84.53900000000002" y1="98.63000000000002" x2="-78.3315" y2="98.91" stroke="#000000" stroke-width="1" />
 <line x1="-84.53900000000002" y1="98.63000000000002" x2="-79.89150000000001" y2="110.24500000000003" stroke="#000000" stroke-width="1" />
</svg>